<svg width="75" height="75" viewBox="0 0 75 75" fill="none" xmlns="http://www.w3.org/2000/svg">
<path d="M34.375 6.25H28.125C12.5 6.25 6.25 12.5 6.25 28.125V46.875C6.25 62.5 12.5 68.75 28.125 68.75H46.875C62.5 68.75 68.75 62.5 68.75 46.875V40.625" stroke="white" stroke-width="4" stroke-linecap="round" stroke-linejoin="round"/>
<path d="M50.1254 9.4375L25.5004 34.0625C24.5629 35 23.6254 36.8437 23.4379 38.1875L22.0941 47.5937C21.5941 51 24.0004 53.375 27.4066 52.9063L36.8129 51.5625C38.1254 51.375 39.9691 50.4375 40.9379 49.5L65.5629 24.875C69.8129 20.625 71.8129 15.6875 65.5629 9.4375C59.3129 3.1875 54.3754 5.1875 50.1254 9.4375Z" stroke="white" stroke-width="4" stroke-miterlimit="10" stroke-linecap="round" stroke-linejoin="round"/>
<path d="M46.5938 12.9688C47.63 16.6483 49.5937 20.0002 52.2967 22.7033C54.9998 25.4063 58.3517 27.37 62.0313 28.4063" stroke="white" stroke-width="4" stroke-miterlimit="10" stroke-linecap="round" stroke-linejoin="round"/>
</svg>
