<svg width="61" height="61" viewBox="0 0 61 61" fill="none" xmlns="http://www.w3.org/2000/svg">
<path d="M6.875 60.875C5.01875 60.875 3.42912 60.2146 2.10612 58.8939C0.785375 57.5709 0.125 55.9813 0.125 54.125V6.875C0.125 5.01875 0.785375 3.42912 2.10612 2.10612C3.42912 0.785375 5.01875 0.125 6.875 0.125H54.125C55.9813 0.125 57.5709 0.785375 58.8939 2.10612C60.2146 3.42912 60.875 5.01875 60.875 6.875V54.125C60.875 55.9813 60.2146 57.5709 58.8939 58.8939C57.5709 60.2146 55.9813 60.875 54.125 60.875H6.875ZM17 47.375C17.9562 47.375 18.7584 47.051 19.4064 46.403C20.0521 45.7572 20.375 44.9562 20.375 44C20.375 43.0438 20.0521 42.2416 19.4064 41.5936C18.7584 40.9479 17.9562 40.625 17 40.625C16.0437 40.625 15.2416 40.9479 14.5936 41.5936C13.9479 42.2416 13.625 43.0438 13.625 44C13.625 44.9562 13.9479 45.7572 14.5936 46.403C15.2416 47.051 16.0437 47.375 17 47.375ZM17 33.875C17.9562 33.875 18.7584 33.551 19.4064 32.903C20.0521 32.2572 20.375 31.4562 20.375 30.5C20.375 29.5438 20.0521 28.7416 19.4064 28.0936C18.7584 27.4479 17.9562 27.125 17 27.125C16.0437 27.125 15.2416 27.4479 14.5936 28.0936C13.9479 28.7416 13.625 29.5438 13.625 30.5C13.625 31.4562 13.9479 32.2572 14.5936 32.903C15.2416 33.551 16.0437 33.875 17 33.875ZM17 20.375C17.9562 20.375 18.7584 20.051 19.4064 19.403C20.0521 18.7572 20.375 17.9562 20.375 17C20.375 16.0437 20.0521 15.2416 19.4064 14.5936C18.7584 13.9479 17.9562 13.625 17 13.625C16.0437 13.625 15.2416 13.9479 14.5936 14.5936C13.9479 15.2416 13.625 16.0437 13.625 17C13.625 17.9562 13.9479 18.7572 14.5936 19.403C15.2416 20.051 16.0437 20.375 17 20.375ZM30.5 47.375H44C44.9562 47.375 45.7572 47.051 46.403 46.403C47.051 45.7572 47.375 44.9562 47.375 44C47.375 43.0438 47.051 42.2416 46.403 41.5936C45.7572 40.9479 44.9562 40.625 44 40.625H30.5C29.5438 40.625 28.7428 40.9479 28.097 41.5936C27.449 42.2416 27.125 43.0438 27.125 44C27.125 44.9562 27.449 45.7572 28.097 46.403C28.7428 47.051 29.5438 47.375 30.5 47.375ZM30.5 33.875H44C44.9562 33.875 45.7572 33.551 46.403 32.903C47.051 32.2572 47.375 31.4562 47.375 30.5C47.375 29.5438 47.051 28.7416 46.403 28.0936C45.7572 27.4479 44.9562 27.125 44 27.125H30.5C29.5438 27.125 28.7428 27.4479 28.097 28.0936C27.449 28.7416 27.125 29.5438 27.125 30.5C27.125 31.4562 27.449 32.2572 28.097 32.903C28.7428 33.551 29.5438 33.875 30.5 33.875ZM30.5 20.375H44C44.9562 20.375 45.7572 20.051 46.403 19.403C47.051 18.7572 47.375 17.9562 47.375 17C47.375 16.0437 47.051 15.2416 46.403 14.5936C45.7572 13.9479 44.9562 13.625 44 13.625H30.5C29.5438 13.625 28.7428 13.9479 28.097 14.5936C27.449 15.2416 27.125 16.0437 27.125 17C27.125 17.9562 27.449 18.7572 28.097 19.403C28.7428 20.051 29.5438 20.375 30.5 20.375Z" fill="white"/>
</svg>
