<svg width="27" height="28" viewBox="0 0 27 28" fill="none" xmlns="http://www.w3.org/2000/svg">
<path d="M13.5002 15.6683C13.9612 15.6683 14.4176 15.5742 14.8435 15.3913C15.2693 15.2083 15.6562 14.9402 15.9822 14.6022C16.3081 14.2642 16.5667 13.8629 16.7431 13.4213C16.9194 12.9797 17.0102 12.5063 17.0102 12.0283C17.0102 11.5503 16.9194 11.077 16.7431 10.6354C16.5667 10.1937 16.3081 9.79247 15.9822 9.45447C15.6562 9.11646 15.2693 8.84834 14.8435 8.66541C14.4176 8.48249 13.9612 8.38834 13.5002 8.38834C12.5693 8.38834 11.6765 8.77183 11.0183 9.45447C10.36 10.1371 9.99023 11.0629 9.99023 12.0283C9.99023 12.9937 10.36 13.9196 11.0183 14.6022C11.6765 15.2848 12.5693 15.6683 13.5002 15.6683Z" stroke="#FFBF10" stroke-width="1.5"/>
<path d="M4.07291 9.90501C6.28916 -0.198321 20.7229 -0.186654 22.9279 9.91668C24.2217 15.8433 20.6667 20.86 17.5504 23.9633C16.4615 25.0525 15.0076 25.6611 13.4948 25.6611C11.9819 25.6611 10.5281 25.0525 9.43916 23.9633C6.33416 20.86 2.77916 15.8317 4.07291 9.90501Z" stroke="#FFBF10" stroke-width="1.5"/>
</svg>
