<svg width="21" height="21" viewBox="0 0 21 21" fill="none" xmlns="http://www.w3.org/2000/svg">
<path d="M12.0138 3.07125L13.5538 6.15125C13.7638 6.58 14.3238 6.99125 14.7963 7.07L17.5875 7.53375C19.3725 7.83125 19.7925 9.12625 18.5063 10.4037L16.3363 12.5737C15.9688 12.9412 15.7675 13.65 15.8813 14.1575L16.5025 16.8437C16.9925 18.97 15.8638 19.7925 13.9825 18.6812L11.3663 17.1325C10.8938 16.8525 10.115 16.8525 9.63379 17.1325L7.01754 18.6812C5.14504 19.7925 4.00754 18.9612 4.49754 16.8437L5.11879 14.1575C5.23254 13.65 5.03129 12.9412 4.66379 12.5737L2.49379 10.4037C1.21629 9.12625 1.62754 7.83125 3.41254 7.53375L6.20379 7.07C6.66754 6.99125 7.22754 6.58 7.43754 6.15125L8.97754 3.07125C9.81754 1.4 11.1825 1.4 12.0138 3.07125Z" stroke="#E34C6D" stroke-width="1.5" stroke-linecap="round" stroke-linejoin="round"/>
</svg>
