<svg width="32" height="32" viewBox="0 0 32 32" fill="none" xmlns="http://www.w3.org/2000/svg">
<path d="M15.9997 16C17.7678 16 19.4635 15.2976 20.7137 14.0474C21.964 12.7971 22.6663 11.1014 22.6663 9.33332C22.6663 7.56521 21.964 5.86952 20.7137 4.61928C19.4635 3.36904 17.7678 2.66666 15.9997 2.66666C14.2316 2.66666 12.5359 3.36904 11.2856 4.61928C10.0354 5.86952 9.33301 7.56521 9.33301 9.33332C9.33301 11.1014 10.0354 12.7971 11.2856 14.0474C12.5359 15.2976 14.2316 16 15.9997 16Z" stroke="black" stroke-width="1.5" stroke-linecap="round" stroke-linejoin="round"/>
<path d="M25.613 20.9867L20.893 25.7067C20.7064 25.8933 20.533 26.24 20.493 26.4933L20.2397 28.2933C20.1464 28.9467 20.5997 29.4 21.253 29.3067L23.053 29.0533C23.3064 29.0133 23.6664 28.84 23.8397 28.6533L28.5597 23.9333C29.373 23.12 29.7597 22.1733 28.5597 20.9733C27.373 19.7867 26.4264 20.1733 25.613 20.9867Z" stroke="black" stroke-width="1.5" stroke-miterlimit="10" stroke-linecap="round" stroke-linejoin="round"/>
<path d="M24.9336 21.6667C25.3336 23.1067 26.4536 24.2267 27.8936 24.6267" stroke="black" stroke-width="1.5" stroke-miterlimit="10" stroke-linecap="round" stroke-linejoin="round"/>
<path d="M4.54688 29.3333C4.54688 24.1733 9.68021 20 16.0002 20C17.3869 20 18.7202 20.2 19.9602 20.5733" stroke="black" stroke-width="1.5" stroke-linecap="round" stroke-linejoin="round"/>
</svg>
