<?xml version="1.0" encoding="UTF-8"?>
<svg id="Camada_2" data-name="Camada 2" xmlns="http://www.w3.org/2000/svg" viewBox="0 0 125 125">
  <defs>
    <style>
      .cls-1 {
        fill: #ff3e83;
      }

      .cls-2 {
        fill: #fff;
        stroke: #ff3e83;
        stroke-miterlimit: 10;
        stroke-width: 5px;
      }

      .cls-3 {
        fill: #3ed1ff;
      }
    </style>
  </defs>
  <g id="Camada_1-2" data-name="Camada 1">
    <g>
      <circle class="cls-2" cx="62.5" cy="62.5" r="60"/>
      <g>
        <path d="M64.32,82.41c.85-1.2,1.67-2.35,2.5-3.5,.84-1.18,1.69-2.35,2.52-3.54,.18-.25,.34-.34,.65-.27,5.63,1.25,9.8,6.32,9.87,12.09,.04,3.35,0,6.7,.01,10.05,0,.32-.1,.49-.39,.64-2.74,1.35-5.67,2.05-8.67,2.5-7.24,1.08-14.35,.34-21.37-1.54-.99-.27-1.97-.59-2.96-.86-.26-.07-.34-.2-.34-.46,.01-3.58-.06-7.17,.04-10.75,.17-6.08,5.27-11.37,11.33-11.89,.39-.03,.65,.05,.91,.37,1.83,2.26,3.69,4.51,5.54,6.75,.11,.13,.22,.25,.36,.41Z"/>
        <path class="cls-1" d="M43.76,90.59c-1.17-.11-2.27-.19-3.36-.32-3.8-.46-7.51-1.3-11.16-2.45-.39-.12-.49-.3-.49-.69,.02-3.27,0-6.54,.01-9.81,.01-6.7,5.05-12.15,11.72-12.69,.35-.03,.57,.06,.79,.34,1.88,2.31,3.77,4.6,5.66,6.9,.11,.13,.22,.26,.39,.46,1.25-1.75,2.47-3.45,3.75-5.24,.59,2.35,1.71,4.3,3.41,5.97-.19,.07-.32,.13-.46,.18-6.14,2.08-10.24,7.75-10.26,14.22,0,.86,0,1.71,0,2.57,0,.17,0,.33,0,.57Z"/>
        <path class="cls-3" d="M82.23,90.61c0-1.05,0-2.06,0-3.06-.02-6.57-4.04-12.18-10.25-14.32-.13-.05-.26-.09-.46-.16,1.94-1.93,3.13-4.21,3.6-6.98,1.4,1.7,2.73,3.32,4.1,4.98,.58-.81,1.12-1.56,1.66-2.32,.9-1.25,1.8-2.5,2.68-3.77,.19-.27,.39-.38,.73-.36,6.13,.31,11.33,5.21,11.85,11.31,.18,2.13,.08,4.29,.1,6.44,.01,1.57,0,3.15,0,4.72,0,.29-.09,.44-.35,.57-2.41,1.19-4.97,1.9-7.61,2.32-1.86,.3-3.74,.43-5.61,.63-.13,.01-.27,0-.45,0Z"/>
        <path d="M62.24,45.58c-5.96-.17-10.65-5.1-10.48-11.04,.18-5.97,5.1-10.57,11.14-10.42,5.9,.15,10.49,5.15,10.32,11.22-.16,5.72-5.18,10.39-10.99,10.23Z"/>
        <path d="M53.1,64.21c.01-5.45,4.43-9.87,9.88-9.88,5.51-.01,9.91,4.43,9.89,10-.02,5.43-4.46,9.79-9.96,9.78-5.4-.01-9.82-4.48-9.81-9.9Z"/>
        <path d="M45.31,63.9c-4.76-.05-8.86-3.73-9.51-8.76-.61-4.79,2.55-9.41,7.31-10.68,6.16-1.64,12.29,2.98,12.42,9.37,0,.48-.12,.82-.51,1.16-2.15,1.85-3.51,4.18-4.04,6.97-.06,.32-.2,.52-.49,.67-1.53,.85-3.17,1.27-5.18,1.27Z"/>
        <path d="M79.53,63.9c-1.47,0-2.74-.27-3.97-.76-.26-.11-.38-.26-.42-.54-.53-3.62-2.33-6.45-5.35-8.52-.24-.16-.3-.34-.29-.62,.16-4.6,3.94-8.69,8.54-9.23,5.57-.66,10.33,3,11.13,8.54,.79,5.42-3.41,10.66-8.86,11.09-.31,.02-.62,.04-.79,.06Z"/>
        <path class="cls-3" d="M69.82,46.66c-1.3,1.85-2.04,3.91-2.17,6.21-3.51-1.4-6.9-1.24-10.27,.46-.08-2.46-.79-4.68-2.18-6.66,1.12-.49,13.14-.51,14.62-.01Z"/>
      </g>
    </g>
  </g>
</svg>