<?xml version="1.0" encoding="UTF-8"?>
<svg id="Camada_2" data-name="Camada 2" xmlns="http://www.w3.org/2000/svg" viewBox="0 0 125 125">
  <defs>
    <style>
      .cls-1 {
        fill: #fff;
        stroke: #ff3e83;
        stroke-miterlimit: 10;
        stroke-width: 5px;
      }

      .cls-2 {
        fill: #ffa856;
      }
    </style>
  </defs>
  <g id="Camada_1-2" data-name="Camada 1">
    <g>
      <circle class="cls-1" cx="62.5" cy="62.5" r="60"/>
      <g>
        <path class="cls-2" d="M36.72,27.56l2.17,7.96c.6,2.2,2.31,3.91,4.51,4.51l7.96,2.17-7.96,2.17c-2.2,.6-3.91,2.31-4.51,4.51l-2.17,7.96-2.17-7.96c-.6-2.2-2.31-3.91-4.51-4.51l-7.96-2.17,7.96-2.17c2.2-.6,3.91-2.31,4.51-4.51l2.17-7.96Z"/>
        <path class="cls-2" d="M42.14,72.95l1.49,5.45c.41,1.5,1.58,2.68,3.09,3.09l5.45,1.49-5.45,1.49c-1.5,.41-2.68,1.58-3.09,3.09l-1.49,5.45-1.49-5.45c-.41-1.5-1.58-2.68-3.09-3.09l-5.45-1.49,5.45-1.49c1.5-.41,2.68-1.58,3.09-3.09l1.49-5.45Z"/>
        <path class="cls-2" d="M76.08,27.56l5.35,19.65c.92,3.36,3.54,5.99,6.91,6.91l19.65,5.35-19.65,5.35c-3.36,.92-5.99,3.54-6.91,6.91l-5.35,19.65-5.35-19.65c-.92-3.36-3.54-5.99-6.91-6.91l-19.65-5.35,19.65-5.35c3.36-.92,5.99-3.54,6.91-6.91l5.35-19.65Z"/>
      </g>
    </g>
  </g>
</svg>