<svg width="91" height="91" viewBox="0 0 91 91" fill="none" xmlns="http://www.w3.org/2000/svg">
<path d="M7.58301 83.4163H83.4163M11.7918 83.4163V49.2913C11.7918 42.9972 17.4413 37.9163 24.418 37.9163H66.5434C73.5201 37.9163 79.1697 42.9972 79.1697 49.2913V83.4163M21.0813 37.9163V27.1859C21.0813 22.6359 25.1763 18.958 30.2572 18.958H60.7801C65.823 18.958 69.918 22.6359 69.918 27.1859V37.9163" stroke="black" stroke-width="1.5" stroke-linecap="round" stroke-linejoin="round"/>
<path d="M13.3848 53.0072L14.7877 53.0451C17.5935 53.083 19.8306 55.358 19.8306 58.1638V59.4151C19.8306 60.7727 20.3699 62.0746 21.3298 63.0346C22.2898 63.9945 23.5918 64.5338 24.9493 64.5338C26.3069 64.5338 27.6089 63.9945 28.5689 63.0346C29.5288 62.0746 30.0681 60.7727 30.0681 59.4151V58.2397C30.0681 56.8821 30.6074 55.5801 31.5673 54.6202C32.5273 53.6602 33.8293 53.1209 35.1868 53.1209C36.5444 53.1209 37.8464 53.6602 38.8064 54.6202C39.7663 55.5801 40.3056 56.8821 40.3056 58.2397V59.4151C40.3056 60.7727 40.8449 62.0746 41.8048 63.0346C42.7648 63.9945 44.0668 64.5338 45.4243 64.5338C46.7819 64.5338 48.0839 63.9945 49.0439 63.0346C50.0038 62.0746 50.5431 60.7727 50.5431 59.4151V58.2397C50.5431 56.8821 51.0824 55.5801 52.0423 54.6202C53.0023 53.6602 54.3043 53.1209 55.6619 53.1209C57.0194 53.1209 58.3214 53.6602 59.2814 54.6202C60.2413 55.5801 60.7806 56.8821 60.7806 58.2397V59.4151C60.7806 60.7727 61.3199 62.0746 62.2798 63.0346C63.2398 63.9945 64.5418 64.5338 65.8993 64.5338C67.2569 64.5338 68.5589 63.9945 69.5189 63.0346C70.4788 62.0746 71.0181 60.7727 71.0181 59.4151V58.2397C71.0181 55.4338 73.2931 53.1209 76.1368 53.1209H77.8431M30.3335 18.958V11.3747M60.6669 18.958V11.3747M45.5002 18.958V7.58301" stroke="black" stroke-width="1.5" stroke-linecap="round" stroke-linejoin="round"/>
</svg>
