<svg width="88" height="81" viewBox="0 0 88 81" fill="none" xmlns="http://www.w3.org/2000/svg">
<path d="M12.9697 1V24.9394M1 12.9697H24.9394M15.3636 60.8485V80M5.78788 70.4242H24.9394M41.7353 31.0822C31.5945 33.9837 26.5242 35.4296 25.7916 37.9912C25.5473 38.8487 25.5473 39.7574 25.7916 40.6149C26.5242 43.1764 31.5945 44.6224 41.7353 47.5238C43.7701 48.1032 44.7851 48.3952 45.556 49.0272C45.8333 49.2569 46.0839 49.517 46.3029 49.8028C46.911 50.5928 47.1695 51.6222 47.6818 53.6762C50.6264 65.4449 52.0962 71.3291 54.8158 72.0617C55.6297 72.2819 56.4915 72.2819 57.3055 72.0617C60.025 71.3339 61.4948 65.4449 64.4394 53.6762C64.9517 51.6175 65.2055 50.5929 65.8183 49.7981C66.0379 49.5156 66.2884 49.2586 66.5652 49.032C67.3313 48.3952 68.3511 48.1032 70.3811 47.5238C80.5314 44.6224 85.597 43.1764 86.3248 40.6149C86.5691 39.7574 86.5691 38.8487 86.3248 37.9912C85.597 35.4296 80.5314 33.9837 70.3811 31.0822C68.3511 30.5029 67.3361 30.2108 66.5652 29.5788C66.2879 29.3492 66.0373 29.089 65.8183 28.8032C65.2055 28.0132 64.9517 26.9838 64.4394 24.9298C61.4948 13.1612 60.025 7.27212 57.3055 6.54436C56.4901 6.32481 55.6311 6.32481 54.8158 6.54436C52.0962 7.27212 50.6264 13.1612 47.6818 24.9298C47.1695 26.9886 46.9158 28.0132 46.3029 28.808C46.0833 29.0905 45.8328 29.3474 45.556 29.5741C44.7899 30.2109 43.7653 30.5029 41.7353 31.0822Z" stroke="black" stroke-width="2" stroke-linecap="round" stroke-linejoin="round"/>
</svg>
