<svg width="84" height="84" viewBox="0 0 84 84" fill="none" xmlns="http://www.w3.org/2000/svg">
<path d="M36.7496 28H47.2496M23.6596 77H60.3396C69.9996 77 73.8496 71.085 74.3046 63.875L76.1246 34.965C76.238 33.1724 75.9826 31.3756 75.3741 29.6856C74.7657 27.9957 73.817 26.4485 72.5869 25.1396C71.3568 23.8308 69.8713 22.7881 68.2223 22.0761C66.5733 21.3641 64.7958 20.9979 62.9996 21C60.8646 21 58.9046 19.775 57.9246 17.885L55.4046 12.81C53.7946 9.625 49.5946 7 46.0246 7H38.0096C34.4046 7 30.2046 9.625 28.5946 12.81L26.0746 17.885C25.0946 19.775 23.1346 21 20.9996 21C13.4046 21 7.38461 27.405 7.87461 34.965L9.69461 63.875C10.1146 71.085 13.9996 77 23.6596 77Z" stroke="black" stroke-width="1.5" stroke-linecap="round" stroke-linejoin="round"/>
<path d="M42 63C48.265 63 53.375 57.89 53.375 51.625C53.375 45.36 48.265 40.25 42 40.25C35.735 40.25 30.625 45.36 30.625 51.625C30.625 57.89 35.735 63 42 63Z" stroke="black" stroke-width="1.5" stroke-linecap="round" stroke-linejoin="round"/>
</svg>
