<?xml version="1.0" encoding="UTF-8"?>
<svg id="Camada_2" data-name="Camada 2" xmlns="http://www.w3.org/2000/svg" viewBox="0 0 125 125">
  <defs>
    <style>
      .cls-1 {
        fill: #fff;
        stroke: #ff3e83;
        stroke-miterlimit: 10;
        stroke-width: 5px;
      }
    </style>
  </defs>
  <g id="Camada_1-2" data-name="Camada 1">
    <g>
      <circle class="cls-1" cx="62.5" cy="62.5" r="60"/>
      <g>
        <path d="M34.4,91h-1.28c-.4-.05-.79-.09-1.19-.15-2.27-.36-4.28-1.25-5.86-2.95-1.48-1.6-2.17-3.49-1.99-5.68,.16-1.94,.99-3.59,2.27-5.02,1.59-1.77,3.57-2.88,5.86-3.48,1.62-.43,3.27-.55,4.93-.3,.54,.08,1.07,.2,1.63,.31,0-.1,0-.2,0-.31,0-7.27,0-14.54,0-21.81,0-1.63,1.05-2.93,2.61-3.26,4.74-1,9.47-2,14.21-3,3.86-.81,7.72-1.63,11.58-2.44,.67-.14,1.33-.33,2.03-.27,1.3,.11,2.46,1.06,2.8,2.32,.06,.21,.09,.43,.14,.64v30.08c-.02,.09-.05,.19-.06,.28-.04,.37-.05,.74-.12,1.1-.36,1.97-1.33,3.61-2.78,4.96-2.42,2.25-5.32,3.28-8.6,3.29-2.25,0-4.35-.58-6.21-1.87-1.58-1.1-2.69-2.54-3.18-4.42-.59-2.31-.09-4.42,1.2-6.37,1.21-1.82,2.87-3.09,4.86-3.95,1.99-.86,4.08-1.22,6.25-1,.72,.07,1.43,.22,2.16,.34v-18.19c-.11,.02-.21,.04-.31,.06-2.21,.47-4.41,.93-6.62,1.4-4.39,.93-8.79,1.86-13.19,2.77-.27,.06-.33,.15-.33,.41,0,8.27,0,16.54,0,24.81,0,.82-.04,1.65-.07,2.47-.06,1.6-.59,3.04-1.51,4.34-1.9,2.67-4.55,4.12-7.72,4.71-.5,.09-1.02,.13-1.53,.2Z"/>
        <path d="M89.2,27c.14,.01,.29,.02,.43,.03,1.73,.13,3.32,.64,4.76,1.62,1.25,.86,2.23,1.97,2.93,3.32,.43,.83,.72,1.7,.86,2.62,.06,.39,.09,.78,.09,1.17,.01,.99,0,1.98,0,2.98,0,.02,0,.04,0,.07-1.11-3.6-3.38-5.98-7.13-6.85v.12c0,5.9,0,11.79,0,17.69,0,.47-.01,.94-.14,1.39-.19,.7-.53,1.32-.99,1.88-.89,1.08-2.02,1.81-3.37,2.19-.7,.2-1.42,.27-2.14,.18-.77-.1-1.48-.36-2.04-.92-.61-.6-.85-1.34-.82-2.17,.03-.91,.36-1.72,.88-2.44,1.02-1.41,2.4-2.28,4.11-2.62,.69-.14,1.38-.14,2.07,.03,.02,0,.04,0,.07,0,0-.04,0-.07,0-.1,0-5.52,0-11.05,0-16.57,0-1.18,0-2.36,0-3.55,0-.03,0-.06,0-.09,.14,0,.29,0,.43,0Z"/>
      </g>
    </g>
  </g>
</svg>