<?xml version="1.0" encoding="UTF-8"?>
<svg id="Camada_2" data-name="Camada 2" xmlns="http://www.w3.org/2000/svg" viewBox="0 0 159.48 152.05">
  <defs>
    <style>
      .cls-1 {
        fill: #fff;
      }
    </style>
  </defs>
  <g id="Camada_1-2" data-name="Camada 1">
    <g>
      <path class="cls-1" d="M0,112.01v5.22c0,3.71,3.01,6.71,6.71,6.71h62.72c-.19,.27-.34,.56-.43,.89-1.05,3.89-4.59,12.73-16.17,22.26-.58,.48-.97,1.16-1.04,1.91,0,.05,0,.11-.01,.16-.09,1.59,1.27,2.89,2.86,2.89h57.11s2.74,0,2.35-3.35c-.07-.62-.38-1.19-.83-1.62-5.94-5.75-10.13-7.42-16.57-22.58-.08-.2-.2-.38-.32-.55h56.39c3.71,0,6.71-3.01,6.71-6.71v-5.22H0Z"/>
      <path class="cls-1" d="M66.1,17.23c3.05-2.71-2.31-10.31-2.79-11.8-.36,1.49-5.89,8.8-2.75,11.66,1.4,1.28,4.15,1.38,5.54,.14Z"/>
      <path class="cls-1" d="M85.63,11.8c3.05-2.71-2.53-9.92-2.79-11.8-.58,1.88-5.89,8.8-2.75,11.66,1.4,1.28,4.15,1.38,5.54,.14Z"/>
      <path class="cls-1" d="M106.24,17.23c3.05-2.71-2.16-9.47-2.79-11.8-.21,2.33-5.89,8.8-2.75,11.66,1.4,1.28,4.15,1.38,5.54,.14Z"/>
      <path class="cls-1" d="M72.04,38.32c10.23,0,10.23,10.23,20.45,10.23s10.23-10.23,20.46-10.23c6.57,0,8.86,4.08,12.36,7.09v-4.84c0-6.08-4.93-11.01-11.01-11.01h-6.93v-10.05h-7.16v10.05h-13.54V14.47h-7.16v15.08h-12.68v-10.05h-7.16v10.05h-8.22c-6.08,0-11.01,4.93-11.01,11.01v1.91c2.91,2.83,5.49,6.06,11.15,6.06,10.23,0,10.23-10.23,20.45-10.23Z"/>
      <path class="cls-1" d="M125.31,48.86c-3.47-3.02-5.93-7.18-12.36-7.18-10.23,0-10.23,10.23-20.45,10.23s-10.23-10.23-20.45-10.23-10.23,10.23-20.46,10.23c-5.79,0-8.25-3.17-11.15-5.98v24.86H125.31v-21.92Z"/>
      <path class="cls-1" d="M49.38,82.99c10.23,0,10.23,10.23,20.45,10.23s10.23-10.23,20.46-10.23c.1,0,.18,0,.28,0h0c10.22-.34,10.39,10.22,20.62,10.22s10.23-10.23,20.45-10.23c6.47,0,8.85,4.1,12.32,7.11v-6.13c0-6.08-4.93-11.01-11.01-11.01H32.8c-6.08,0-11.01,4.93-11.01,11.01v6.89c1.82,1.37,4.01,2.36,7.15,2.36,10.23,0,10.23-10.23,20.45-10.23Z"/>
      <path class="cls-1" d="M143.96,93.44c-3.46-3.01-5.84-7.1-12.31-7.1-10.23,0-10.23,10.23-20.46,10.23-.1,0-.18,0-.28,0h0c-10.22,.34-10.39-10.22-20.62-10.22s-10.23,10.23-20.45,10.23-10.23-10.23-20.45-10.23-10.23,10.23-20.46,10.23c-3.18,0-5.35-.96-7.15-2.28v15.55h122.18v-16.4Z"/>
    </g>
  </g>
</svg>