<?xml version="1.0" encoding="UTF-8"?>
<svg id="Camada_2" data-name="Camada 2" xmlns="http://www.w3.org/2000/svg" viewBox="0 0 153.58 113">
  <defs>
    <style>
      .cls-1 {
        fill: #fff;
      }
    </style>
  </defs>
  <g id="Camada_1-2" data-name="Camada 1">
    <g>
      <path class="cls-1" d="M146.33,15.11h-9.43c.16-.68,.25-1.39,.25-2.11h0c0-5.15-4.21-9.37-9.37-9.37s-9.37,4.21-9.37,9.37h0c0,.73,.09,1.43,.25,2.11h-5.43c.26-.9,.41-1.84,.41-2.82v-2.21c0-5.54-4.53-10.07-10.07-10.07H50c-5.54,0-10.07,4.53-10.07,10.07v2.21c0,.98,.15,1.92,.41,2.82H7.25c-3.99,0-7.25,3.26-7.25,7.25V105.74c0,3.99,3.26,7.25,7.25,7.25H146.33c3.99,0,7.25-3.26,7.25-7.25V22.36c0-3.99-3.26-7.25-7.25-7.25ZM16.9,42.3c-5.01,0-9.06-4.06-9.06-9.06s4.06-9.06,9.06-9.06,9.06,4.06,9.06,9.06-4.06,9.06-9.06,9.06Zm12.69,10.27c-3,0-5.44-2.43-5.44-5.44s2.43-5.44,5.44-5.44,5.44,2.43,5.44,5.44-2.43,5.44-5.44,5.44Zm48.55,50.46c-21.53,0-38.97-17.45-38.97-38.97S56.62,25.08,78.14,25.08s38.97,17.45,38.97,38.97-17.45,38.97-38.97,38.97Z"/>
      <path class="cls-1" d="M78.14,33.23c-17.19,0-31.12,13.93-31.12,31.12s13.93,31.12,31.12,31.12,31.12-13.93,31.12-31.12-13.93-31.12-31.12-31.12Zm1.49,15.11c-9.87,0-16.5,7.04-16.5,17.52h-7.25c0-14.59,9.77-24.77,23.75-24.77v7.25Z"/>
    </g>
  </g>
</svg>