<?xml version="1.0" encoding="UTF-8"?>
<svg id="Camada_2" data-name="Camada 2" xmlns="http://www.w3.org/2000/svg" viewBox="0 0 179.56 136.75">
  <defs>
    <style>
      .cls-1 {
        fill: #fff;
      }
    </style>
  </defs>
  <g id="Camada_1-2" data-name="Camada 1">
    <g>
      <path class="cls-1" d="M30.6,0l4.53,16.64c1.25,4.59,4.84,8.18,9.43,9.43l16.64,4.53-16.64,4.53c-4.59,1.25-8.18,4.84-9.43,9.43l-4.53,16.64-4.53-16.64c-1.25-4.59-4.84-8.18-9.43-9.43L0,30.6l16.64-4.53c4.59-1.25,8.18-4.84,9.43-9.43L30.6,0Z"/>
      <path class="cls-1" d="M41.94,94.85l3.1,11.39c.86,3.14,3.31,5.6,6.45,6.45l11.39,3.1-11.39,3.1c-3.14,.86-5.6,3.31-6.45,6.45l-3.1,11.39-3.1-11.39c-.86-3.14-3.31-5.6-6.45-6.45l-11.39-3.1,11.39-3.1c3.14-.86,5.6-3.31,6.45-6.45l3.1-11.39Z"/>
      <path class="cls-1" d="M112.86,0l11.19,41.07c1.91,7.03,7.41,12.52,14.44,14.44l41.07,11.19-41.07,11.19c-7.03,1.91-12.52,7.41-14.44,14.44l-11.19,41.07-11.19-41.07c-1.91-7.03-7.41-12.52-14.44-14.44l-41.07-11.19,41.07-11.19c7.03-1.91,12.52-7.41,14.44-14.44L112.86,0Z"/>
    </g>
  </g>
</svg>