<?xml version="1.0" encoding="UTF-8"?>
<svg id="Camada_2" data-name="Camada 2" xmlns="http://www.w3.org/2000/svg" viewBox="0 0 144.13 124.19">
  <defs>
    <style>
      .cls-1 {
        fill: #fff;
      }
    </style>
  </defs>
  <g id="Camada_1-2" data-name="Camada 1">
    <g>
      <path class="cls-1" d="M0,107.33c.2-1.04,.32-2.1,.62-3.11,1.12-3.85,3.43-6.92,6.58-9.33,5-3.83,10.7-5.41,16.95-4.95,1.32,.1,2.62,.44,3.93,.67,.15,.03,.3,.07,.5,.12v-.65c0-14.03,0-28.06,0-42.1,0-3.49,1.9-5.87,5.31-6.59,8.99-1.91,17.99-3.79,26.98-5.69,6.82-1.44,13.64-2.89,20.47-4.32,1.75-.37,3.5-.78,5.27-1,1.98-.25,3.67,.51,5.04,1.95,1.2,1.26,1.68,2.8,1.68,4.52,0,18.91,0,37.81,0,56.72,0,6.51-2.92,11.53-8.17,15.2-5.42,3.79-11.48,5.11-18,4.07-4.41-.7-8.33-2.53-11.28-5.98-4.11-4.81-4.76-10.2-2.18-15.93,1.85-4.1,5-7.02,8.92-9.13,4.12-2.22,8.54-3.19,13.21-2.89,1.48,.09,2.94,.45,4.41,.69,.17,.03,.34,.08,.54,.13V44.29c-.96,.2-1.9,.39-2.84,.59-8.1,1.71-16.19,3.41-24.29,5.12-4.06,.86-8.13,1.72-12.19,2.57-.28,.06-.38,.18-.35,.45,.01,.14,0,.29,0,.43,0,16.81-.04,33.62,.02,50.43,.03,7.64-3.44,13.14-9.85,16.96-3.31,1.98-6.93,3.01-10.78,3.27-.14,0-.28,.05-.41,.08h-2.48c-.15-.03-.31-.07-.46-.08-3.55-.25-6.88-1.24-9.89-3.17-3.44-2.21-5.85-5.21-6.85-9.23C.23,110.96,.14,110.19,0,109.43,0,108.73,0,108.03,0,107.33Z"/>
      <g>
        <path class="cls-1" d="M125.68,39.41c-.06,0-.09,0-.12-.01-1.34-.33-2.68-.33-4.03-.06-3.36,.68-6.05,2.39-8.04,5.18-.98,1.38-1.59,2.92-1.64,4.64-.05,1.62,.42,3.06,1.59,4.22,1.1,1.08,2.46,1.59,3.96,1.77,1.39,.17,2.76,.03,4.11-.34,2.65-.73,4.86-2.15,6.61-4.27,.89-1.08,1.55-2.28,1.92-3.64,.24-.89,.26-1.79,.26-2.71,0-11.45,0-22.89,0-34.34v-.23c7.29,1.68,11.69,6.31,13.84,13.3,0-.04,0-.08,0-.12,0-1.93,0-3.86,0-5.8,0-1.09-.13-2.17-.36-3.24-.59-2.65-1.75-5.02-3.45-7.13-1.84-2.28-4.13-3.98-6.82-5.13-2.33-.99-4.77-1.45-7.29-1.52-.17,0-.34,0-.53,0V39.41Z"/>
        <path class="cls-1" d="M125.68,39.41V0c.18,0,.36,0,.53,0,2.52,.07,4.96,.53,7.29,1.52,2.7,1.15,4.98,2.85,6.82,5.13,1.7,2.11,2.86,4.48,3.45,7.13,.24,1.07,.36,2.15,.36,3.24,0,1.93,0,3.86,0,5.8,0,.04,0,.08,0,.12-2.15-6.99-6.55-11.62-13.84-13.3v.23c0,11.45,0,22.89,0,34.34,0,.91-.02,1.82-.26,2.71-.37,1.35-1.03,2.56-1.92,3.64-1.75,2.12-3.96,3.54-6.61,4.27-1.35,.37-2.72,.51-4.11,.34-1.5-.19-2.86-.69-3.96-1.77-1.18-1.16-1.64-2.59-1.59-4.22,.05-1.72,.66-3.26,1.64-4.64,1.99-2.79,4.69-4.51,8.04-5.18,1.34-.27,2.69-.27,4.03,.06,.03,0,.07,0,.12,.01Z"/>
      </g>
    </g>
  </g>
</svg>