<?xml version="1.0" encoding="UTF-8"?>
<svg id="Camada_2" data-name="Camada 2" xmlns="http://www.w3.org/2000/svg" viewBox="0 0 130.54 135.04">
  <defs>
    <style>
      .cls-1 {
        fill: #fff;
      }
    </style>
  </defs>
  <g id="Camada_1-2" data-name="Camada 1">
    <g>
      <path class="cls-1" d="M.12,89.86c0-12.49,0-24.34,0-36.19,0-4.88-.17-9.76,.1-14.62,.08-1.4,1.06-3.33,2.22-4.01C22.4,23.4,42.42,11.88,62.51,.46c1.09-.62,3.16-.62,4.25,0,20.31,11.52,40.56,23.15,60.76,34.87,1.07,.62,2.26,2.16,2.27,3.29,.14,16.98,.1,33.97,.1,51.6-1.57-.86-2.74-1.46-3.87-2.11-19.16-11.01-38.36-21.97-57.45-33.11-2.79-1.63-4.81-1.83-7.74-.11-18.62,10.95-37.39,21.65-56.11,32.43-1.29,.74-2.6,1.44-4.59,2.54ZM80.47,22.88c0,8.13,.1,15.38-.06,22.62-.05,2.34,.78,3.56,2.75,4.67,8.39,4.69,16.69,9.53,25.03,14.3,.88,.5,1.82,.88,3.11,1.5,0-5.59-.53-10.66,.12-15.56,1.01-7.5-1.74-11.77-8.63-14.9-7.54-3.42-14.5-8.13-22.32-12.62Z"/>
      <path class="cls-1" d="M130.54,96.8c-1.52,.99-2.5,1.68-3.52,2.29-19.5,11.65-39.02,23.26-58.48,34.97-1.9,1.14-3.28,1.38-5.35,.16-20.1-11.85-40.29-23.55-60.45-35.31-3.66-2.13-3.65-2.75,.02-4.86,19.79-11.4,39.57-22.81,59.41-34.11,1.15-.66,3.22-.94,4.27-.35,20.73,11.75,41.38,23.66,62.04,35.55,.52,.3,.94,.75,2.07,1.66Z"/>
    </g>
  </g>
</svg>