<?xml version="1.0" encoding="UTF-8"?>
<svg id="Camada_2" data-name="Camada 2" xmlns="http://www.w3.org/2000/svg" viewBox="0 0 159.56 127.4">
  <defs>
    <style>
      .cls-1 {
        fill: #fff;
      }
    </style>
  </defs>
  <g id="Camada_1-2" data-name="Camada 1">
    <g>
      <path class="cls-1" d="M80.13,127.4c-19.2-.41-35.18-6.92-48.04-20.63-.64-.68-1.27-1.37-1.82-2.11-2.14-2.92-2.06-6.5,.17-9.13,2.37-2.8,5.85-3.58,9.14-1.72,11.18,6.33,23.18,9.7,36,10.23,15.47,.64,30.07-2.46,43.64-10.13,4.47-2.53,9.6-.27,10.82,4.57,.68,2.71-.23,5.02-2,7.02-10.91,12.3-24.59,19.33-40.86,21.37-2.51,.32-5.05,.39-7.04,.54Z"/>
      <path class="cls-1" d="M35.54,7.67C39.94,.76,44.48-1.33,50.04,.82c5.1,1.97,7.62,6.32,6.78,11.64-.94,5.92-5.18,8.88-13.34,9.18-.14,1.28-.24,2.59-.42,3.9-1.14,7.98-6.57,14.1-14.41,15.8-2.09,.45-2.64,1.41-2.95,3.29-1.19,7.08-8.17,12.45-16.72,10.04-4.75-1.34-7.72-5.06-8.68-10.03-1.01-5.23,.74-9.51,4.89-12.76,1.18-.92,1.79-1.56,1.3-3.26-2.32-8.06-.24-15.03,6.27-20.22,6.53-5.2,13.76-5.53,21.14-1.58,.51,.28,1.04,.53,1.66,.85Z"/>
      <path class="cls-1" d="M116.13,21.59c-7.83-.14-12.11-2.91-13.26-8.39-1.17-5.62,1.02-9.97,6.15-12.19,5.62-2.43,9.88-.56,14.89,6.46,2.3-.89,4.5-2.04,6.84-2.61,14-3.38,26.29,9.27,22.49,23.15-.49,1.78-.38,2.73,1.2,3.98,8.05,6.35,6.32,18.82-3.25,22.54-6.72,2.61-15.77-1.19-17.3-9.73-.38-2.15-1.12-3.05-3.32-3.54-7.97-1.76-13.62-8.69-14.27-17.03-.06-.83-.11-1.66-.18-2.63Z"/>
      <path class="cls-1" d="M101.93,77.35c.16,11.59-10.04,21.7-22.14,21.95-11.96,.25-22.64-9.89-22.77-21.61-.13-12.34,10.11-22.77,22.42-22.83,12.18-.06,22.32,10.09,22.49,22.49Z"/>
      <path class="cls-1" d="M99.98,56.88c-4-.25-8.63,.54-8.71-4.91-.07-5.65,4.71-4.8,8.65-5.1,0-1.4-.05-2.65,0-3.89,.14-2.94,2.01-4.92,4.67-5.01,2.81-.1,4.84,1.83,5.12,4.84,.02,.17,.01,.34,.02,.51q.16,3.58,3.9,3.7c2.87,.1,4.77,1.44,5.22,3.85,.45,2.39-.65,4.25-2.67,5.23-1.28,.62-2.94,.62-4.43,.62-1.53,0-2.17,.5-2.05,2.05,.07,.92,0,1.86-.13,2.78-.38,2.66-2.27,4.33-4.8,4.32-2.39,0-4.48-1.84-4.78-4.4-.17-1.41-.03-2.85-.03-4.6Z"/>
      <path class="cls-1" d="M63.97,51.78c-.28,1.72-.38,3.17-.76,4.53-1.32,4.77-5.16,7.79-9.73,7.74-4.36-.04-8.45-3.12-9.29-7.86-.52-2.96-.36-6.23,.36-9.16,1.04-4.24,4.86-6.72,9.05-6.76,4.14-.04,7.61,2.29,9.12,6.37,.63,1.71,.88,3.57,1.25,5.13Z"/>
    </g>
  </g>
</svg>