<?xml version="1.0" encoding="UTF-8"?>
<svg id="Camada_2" data-name="Camada 2" xmlns="http://www.w3.org/2000/svg" viewBox="0 0 186.21 130.44">
  <defs>
    <style>
      .cls-1, .cls-2 {
        fill: #fff;
        stroke: #000;
        stroke-miterlimit: 10;
      }

      .cls-2 {
        stroke-width: 5px;
      }
    </style>
  </defs>
  <g id="Camada_1-2" data-name="Camada 1">
    <g>
      <path d="M122.38,24.24c1.93,0,1.93-3,0-3s-1.93,3,0,3h0Z"/>
      <g>
        <path class="cls-2" d="M89.68,58.04c.73-.97,1.81-1.47,2.9-1.5,.05,0,.1-.04,.1-.1v-2.34s-.03-.08-.07-.1L16.81,30.08s-.09,0-.11,.04L2.52,56.31c-.04,.05-.01,.13,.05,.15l17.3,5.31s0,0,0,0l53.75,17.62s.09,0,.11-.04l15.94-21.32Z"/>
        <path class="cls-2" d="M167.06,29.96L92.8,4.16s-.04,0-.07,0L17.03,29.96c-.09,.03-.09,.16,0,.19l75.61,23.87s.04,0,.06,0l74.35-23.87c.09-.03,.09-.16,0-.19Z"/>
        <path class="cls-2" d="M167.27,30.08l-74.52,23.93s-.07,.05-.07,.1v2.34c0,.05,.04,.1,.1,.1,1.09,.03,2.17,.53,2.89,1.5l15.92,21.32s.07,.05,.11,.04l54.23-15.99s0,0,.01,0l17.75-5.6c.06-.02-.07-.22-.11-.27l-16.19-27.41s-.07-.05-.11-.04Z"/>
        <path class="cls-2" d="M95.67,58.04c-.72-.97-1.8-1.47-2.89-1.5-.06,0-.11,.05-.11,.1l.09,71.19c0,.07,.07,.12,.13,.1l72.97-25.04s.07-.05,.07-.1V63.54c0-.07-.07-.12-.13-.1l-54.11,15.96s-.08,0-.11-.04l-15.92-21.32Z"/>
        <path class="cls-2" d="M89.68,58.04l-15.94,21.32s-.07,.05-.11,.04L20,61.82c-.07-.02-.13,.03-.13,.1v40.92s.03,.08,.07,.1l72.7,25c.07,.02,.13-.03,.13-.1l-.09-71.19c0-.06-.05-.11-.11-.1-1.09,.03-2.17,.53-2.89,1.5Z"/>
      </g>
      <circle class="cls-1" cx="59.9" cy="28.91" r="8.39"/>
      <circle class="cls-1" cx="43.11" cy="29.75" r="8.39"/>
      <circle class="cls-1" cx="73.33" cy="42.34" r="8.39"/>
      <circle class="cls-1" cx="143" cy="27.23" r="8.39"/>
      <circle class="cls-1" cx="76.69" cy="24.72" r="8.39"/>
      <circle class="cls-1" cx="90.12" cy="44.02" r="8.39"/>
      <circle class="cls-1" cx="58.22" cy="38.15" r="8.39"/>
      <g>
        <rect class="cls-1" x="93.31" y="2.17" width="35.13" height="44.41" transform="translate(111.1 137.91) rotate(-102.51)"/>
        <circle class="cls-1" cx="104.41" cy="25.82" r="9.61"/>
        <circle class="cls-1" cx="122.53" cy="21.8" r="5.63"/>
      </g>
      <g>
        <g>
          <polyline class="cls-1" points="71.74 36.5 93.51 11.1 83.82 3.99 66.93 32.97"/>
          <circle class="cls-1" cx="87.94" cy="9.17" r="8.66"/>
        </g>
        <path class="cls-1" d="M80.96,4.04s-.3,3.54,4.89,7.35c5.19,3.81,9.08,2.9,9.08,2.9"/>
      </g>
      <g>
        <circle class="cls-1" cx="55.07" cy="19.05" r="15.32"/>
        <circle class="cls-1" cx="47.58" cy="9.6" r="2.61"/>
        <circle class="cls-1" cx="49.53" cy="18.07" r="2.61"/>
        <circle class="cls-1" cx="52.79" cy="13.51" r="2.61"/>
        <circle class="cls-1" cx="58.66" cy="23.29" r="2.61"/>
        <circle class="cls-1" cx="61.26" cy="18.07" r="2.61"/>
        <circle class="cls-1" cx="58.01" cy="13.51" r="2.61"/>
        <circle class="cls-1" cx="55.4" cy="18.07" r="2.61"/>
        <circle class="cls-1" cx="65.18" cy="13.51" r="2.61"/>
        <circle class="cls-1" cx="52.79" cy="23.29" r="2.61"/>
        <circle class="cls-1" cx="54.09" cy="29.81" r="2.61"/>
        <circle class="cls-1" cx="60.61" cy="28.5" r="2.61"/>
        <circle class="cls-1" cx="65.18" cy="25.24" r="2.61"/>
        <circle class="cls-1" cx="67.13" cy="20.03" r="2.61"/>
        <circle class="cls-1" cx="48.23" cy="27.2" r="2.61"/>
        <circle class="cls-1" cx="60.61" cy="8.95" r="2.61"/>
        <circle class="cls-1" cx="54.09" cy="7.64" r="2.61"/>
        <circle class="cls-1" cx="44.32" cy="21.98" r="2.61"/>
        <circle class="cls-1" cx="44.32" cy="15.47" r="2.61"/>
      </g>
    </g>
  </g>
</svg>