<?xml version="1.0" encoding="UTF-8"?>
<svg id="Camada_2" data-name="Camada 2" xmlns="http://www.w3.org/2000/svg" viewBox="0 0 122.43 139.23">
  <defs>
    <style>
      .cls-1 {
        fill: #fff;
      }
    </style>
  </defs>
  <g id="Camada_1-2" data-name="Camada 1">
    <g>
      <path class="cls-1" d="M64.51,105.74c1.55-2.17,3.04-4.26,4.53-6.35,1.53-2.14,3.07-4.27,4.57-6.42,.32-.46,.61-.61,1.18-.48,10.22,2.27,17.77,11.47,17.9,21.94,.07,6.07,0,12.15,.03,18.22,0,.59-.18,.89-.71,1.16-4.97,2.46-10.29,3.72-15.73,4.53-13.12,1.95-26.02,.61-38.77-2.79-1.8-.48-3.57-1.06-5.37-1.56-.47-.13-.62-.37-.62-.84,.02-6.5-.11-13,.07-19.49,.31-11.02,9.57-20.62,20.55-21.57,.71-.06,1.18,.09,1.66,.68,3.33,4.1,6.7,8.17,10.05,12.25,.19,.23,.4,.45,.65,.74Z"/>
      <path class="cls-1" d="M27.23,120.56c-2.12-.2-4.11-.34-6.1-.58-6.89-.84-13.62-2.36-20.24-4.44C.19,115.32,0,115,0,114.29c.03-5.93,.01-11.86,.02-17.8,.02-12.16,9.16-22.04,21.27-23.03,.63-.05,1.03,.11,1.43,.61,3.4,4.19,6.84,8.35,10.26,12.51,.2,.24,.4,.47,.7,.84,2.27-3.17,4.48-6.27,6.81-9.51,1.08,4.27,3.1,7.8,6.18,10.83-.34,.13-.59,.24-.84,.32-11.14,3.77-18.57,14.07-18.61,25.8,0,1.55,0,3.11,0,4.66,0,.3,0,.6,0,1.03Z"/>
      <path class="cls-1" d="M97,120.61c0-1.9,0-3.73,0-5.56-.05-11.92-7.32-22.09-18.6-25.98-.24-.08-.47-.17-.84-.3,3.52-3.5,5.67-7.63,6.53-12.67,2.54,3.09,4.96,6.02,7.44,9.04,1.05-1.46,2.04-2.83,3.02-4.2,1.63-2.28,3.26-4.54,4.86-6.84,.34-.5,.7-.69,1.32-.66,11.13,.57,20.56,9.45,21.5,20.52,.33,3.87,.15,7.79,.18,11.69,.02,2.85,0,5.71,.02,8.56,0,.53-.16,.8-.63,1.04-4.37,2.16-9.02,3.45-13.8,4.21-3.37,.54-6.78,.78-10.18,1.15-.24,.03-.49,0-.81,0Z"/>
      <path class="cls-1" d="M60.74,38.92c-10.82-.3-19.32-9.26-19-20.02C42.06,8.08,51-.27,61.95,0c10.7,.28,19.04,9.33,18.73,20.35-.29,10.38-9.39,18.85-19.93,18.56Z"/>
      <path class="cls-1" d="M44.17,72.73c.02-9.88,8.04-17.9,17.93-17.92,9.99-.02,17.97,8.04,17.94,18.13-.03,9.84-8.09,17.76-18.07,17.73-9.79-.02-17.82-8.12-17.8-17.95Z"/>
      <path class="cls-1" d="M30.03,72.16c-8.64-.09-16.08-6.77-17.25-15.89-1.11-8.7,4.62-17.08,13.25-19.38,11.18-2.98,22.3,5.41,22.52,17,.02,.87-.22,1.49-.92,2.1-3.9,3.36-6.37,7.58-7.33,12.65-.11,.58-.37,.94-.88,1.22-2.78,1.54-5.75,2.3-9.39,2.31Z"/>
      <path class="cls-1" d="M92.11,72.16c-2.66,0-4.97-.49-7.19-1.38-.48-.19-.68-.47-.76-.98-.97-6.57-4.24-11.71-9.7-15.46-.43-.3-.55-.62-.53-1.12,.29-8.35,7.14-15.77,15.5-16.75,10.1-1.19,18.74,5.44,20.2,15.49,1.43,9.82-6.18,19.33-16.08,20.11-.56,.04-1.13,.08-1.44,.1Z"/>
      <path class="cls-1" d="M74.5,40.89c-2.36,3.36-3.7,7.09-3.94,11.26-6.36-2.54-12.51-2.25-18.63,.84-.14-4.46-1.42-8.48-3.95-12.08,2.03-.9,23.84-.93,26.52-.02Z"/>
    </g>
  </g>
</svg>