<svg width="53" height="54" viewBox="0 0 53 54" fill="none" xmlns="http://www.w3.org/2000/svg">
<path d="M4.41675 4.5H8.25925C10.6442 4.5 12.5213 6.5925 12.3226 9L10.4897 31.41C10.4181 32.2782 10.5243 33.1521 10.8016 33.9762C11.0788 34.8004 11.5211 35.5569 12.1003 36.1979C12.6795 36.8388 13.3831 37.3501 14.1664 37.6995C14.9498 38.0489 15.7958 38.2287 16.6509 38.2275H40.1697C43.3497 38.2275 46.1322 35.5725 46.3751 32.355L47.5676 15.48C47.8326 11.745 45.0501 8.7075 41.3622 8.7075H12.8526M19.8751 18H46.3751M35.8855 49.5C36.6176 49.5 37.3197 49.2037 37.8374 48.6762C38.3551 48.1488 38.6459 47.4334 38.6459 46.6875C38.6459 45.9416 38.3551 45.2262 37.8374 44.6988C37.3197 44.1713 36.6176 43.875 35.8855 43.875C35.1534 43.875 34.4513 44.1713 33.9336 44.6988C33.4159 45.2262 33.1251 45.9416 33.1251 46.6875C33.1251 47.4334 33.4159 48.1488 33.9336 48.6762C34.4513 49.2037 35.1534 49.5 35.8855 49.5ZM18.2188 49.5C18.9509 49.5 19.6531 49.2037 20.1707 48.6762C20.6884 48.1488 20.9792 47.4334 20.9792 46.6875C20.9792 45.9416 20.6884 45.2262 20.1707 44.6988C19.6531 44.1713 18.9509 43.875 18.2188 43.875C17.4867 43.875 16.7846 44.1713 16.2669 44.6988C15.7492 45.2262 15.4584 45.9416 15.4584 46.6875C15.4584 47.4334 15.7492 48.1488 16.2669 48.6762C16.7846 49.2037 17.4867 49.5 18.2188 49.5Z" stroke="#F8F8F8" stroke-width="3" stroke-miterlimit="10" stroke-linecap="round" stroke-linejoin="round"/>
</svg>
