<svg width="50" height="50" viewBox="0 0 50 50" fill="none" xmlns="http://www.w3.org/2000/svg">
<path d="M10.4167 43.75C9.27083 43.75 8.28958 43.3424 7.47292 42.5271C6.65764 41.7104 6.25 40.7292 6.25 39.5833V10.4167C6.25 9.27083 6.65764 8.28958 7.47292 7.47292C8.28958 6.65764 9.27083 6.25 10.4167 6.25H39.5833C40.7292 6.25 41.7104 6.65764 42.5271 7.47292C43.3424 8.28958 43.75 9.27083 43.75 10.4167V39.5833C43.75 40.7292 43.3424 41.7104 42.5271 42.5271C41.7104 43.3424 40.7292 43.75 39.5833 43.75H10.4167ZM16.6667 35.4167C17.2569 35.4167 17.7521 35.2167 18.1521 34.8167C18.5507 34.4181 18.75 33.9236 18.75 33.3333C18.75 32.7431 18.5507 32.2479 18.1521 31.8479C17.7521 31.4493 17.2569 31.25 16.6667 31.25C16.0764 31.25 15.5813 31.4493 15.1812 31.8479C14.7826 32.2479 14.5833 32.7431 14.5833 33.3333C14.5833 33.9236 14.7826 34.4181 15.1812 34.8167C15.5813 35.2167 16.0764 35.4167 16.6667 35.4167ZM16.6667 27.0833C17.2569 27.0833 17.7521 26.8833 18.1521 26.4833C18.5507 26.0847 18.75 25.5903 18.75 25C18.75 24.4097 18.5507 23.9146 18.1521 23.5146C17.7521 23.116 17.2569 22.9167 16.6667 22.9167C16.0764 22.9167 15.5813 23.116 15.1812 23.5146C14.7826 23.9146 14.5833 24.4097 14.5833 25C14.5833 25.5903 14.7826 26.0847 15.1812 26.4833C15.5813 26.8833 16.0764 27.0833 16.6667 27.0833ZM16.6667 18.75C17.2569 18.75 17.7521 18.55 18.1521 18.15C18.5507 17.7514 18.75 17.2569 18.75 16.6667C18.75 16.0764 18.5507 15.5813 18.1521 15.1812C17.7521 14.7826 17.2569 14.5833 16.6667 14.5833C16.0764 14.5833 15.5813 14.7826 15.1812 15.1812C14.7826 15.5813 14.5833 16.0764 14.5833 16.6667C14.5833 17.2569 14.7826 17.7514 15.1812 18.15C15.5813 18.55 16.0764 18.75 16.6667 18.75ZM25 35.4167H33.3333C33.9236 35.4167 34.4181 35.2167 34.8167 34.8167C35.2167 34.4181 35.4167 33.9236 35.4167 33.3333C35.4167 32.7431 35.2167 32.2479 34.8167 31.8479C34.4181 31.4493 33.9236 31.25 33.3333 31.25H25C24.4097 31.25 23.9153 31.4493 23.5167 31.8479C23.1167 32.2479 22.9167 32.7431 22.9167 33.3333C22.9167 33.9236 23.1167 34.4181 23.5167 34.8167C23.9153 35.2167 24.4097 35.4167 25 35.4167ZM25 27.0833H33.3333C33.9236 27.0833 34.4181 26.8833 34.8167 26.4833C35.2167 26.0847 35.4167 25.5903 35.4167 25C35.4167 24.4097 35.2167 23.9146 34.8167 23.5146C34.4181 23.116 33.9236 22.9167 33.3333 22.9167H25C24.4097 22.9167 23.9153 23.116 23.5167 23.5146C23.1167 23.9146 22.9167 24.4097 22.9167 25C22.9167 25.5903 23.1167 26.0847 23.5167 26.4833C23.9153 26.8833 24.4097 27.0833 25 27.0833ZM25 18.75H33.3333C33.9236 18.75 34.4181 18.55 34.8167 18.15C35.2167 17.7514 35.4167 17.2569 35.4167 16.6667C35.4167 16.0764 35.2167 15.5813 34.8167 15.1812C34.4181 14.7826 33.9236 14.5833 33.3333 14.5833H25C24.4097 14.5833 23.9153 14.7826 23.5167 15.1812C23.1167 15.5813 22.9167 16.0764 22.9167 16.6667C22.9167 17.2569 23.1167 17.7514 23.5167 18.15C23.9153 18.55 24.4097 18.75 25 18.75Z" fill="black"/>
</svg>
