<svg width="41" height="41" viewBox="0 0 41 41" fill="none" xmlns="http://www.w3.org/2000/svg">
<g clip-path="url(#clip0_855_51)">
<path d="M10.15 17.3697C10.1489 14.8141 10.9438 12.3216 12.4244 10.2386C13.9049 8.1555 15.9976 6.58533 18.4115 5.74624C18.318 5.16057 18.3527 4.5616 18.5132 3.99064C18.6737 3.41969 18.9561 2.89034 19.341 2.43913C19.7259 1.98792 20.2041 1.62559 20.7426 1.37713C21.2812 1.12867 21.8672 1 22.4603 1C23.0533 1 23.6393 1.12867 24.1779 1.37713C24.7164 1.62559 25.1946 1.98792 25.5795 2.43913C25.9644 2.89034 26.2468 3.41969 26.4073 3.99064C26.5678 4.5616 26.6025 5.16057 26.509 5.74624C28.9191 6.58877 31.0073 8.16041 32.484 10.2432C33.9607 12.3259 34.7526 14.8166 34.75 17.3697V29.6697L40.9 33.7697V35.8197H4V33.7697L10.15 29.6697V17.3697ZM26.55 37.8697C26.55 38.9571 26.118 40 25.3491 40.7689C24.5802 41.5378 23.5374 41.9697 22.45 41.9697C21.3626 41.9697 20.3198 41.5378 19.5509 40.7689C18.782 40 18.35 38.9571 18.35 37.8697H26.55Z" fill="#F8F8F8"/>
</g>
<defs>
<clipPath id="clip0_855_51">
<rect width="41" height="41" fill="white"/>
</clipPath>
</defs>
</svg>
