<svg width="305" height="278" viewBox="0 0 305 278" fill="none" xmlns="http://www.w3.org/2000/svg">
<rect x="4" y="4" width="297" height="270" rx="33" stroke="url(#paint0_radial_1921_23)" stroke-width="8"/>
<path d="M79.375 119C82.576 119 85.7456 119.634 88.7029 120.865C91.6602 122.096 94.3473 123.901 96.6107 126.176C98.8742 128.451 100.67 131.152 101.895 134.124C103.12 137.097 103.75 140.283 103.75 143.5C103.75 146.717 103.12 149.903 101.895 152.876C100.67 155.848 98.8742 158.549 96.6107 160.824C94.3473 163.099 91.6602 164.904 88.7029 166.135C85.7456 167.366 82.576 168 79.375 168C72.9103 168 66.7105 165.419 62.1393 160.824C57.5681 156.229 55 149.998 55 143.5C55 137.002 57.5681 130.771 62.1393 126.176C66.7105 121.581 72.9103 119 79.375 119ZM152.5 119C155.701 119 158.871 119.634 161.828 120.865C164.785 122.096 167.472 123.901 169.736 126.176C171.999 128.451 173.795 131.152 175.02 134.124C176.245 137.097 176.875 140.283 176.875 143.5C176.875 146.717 176.245 149.903 175.02 152.876C173.795 155.848 171.999 158.549 169.736 160.824C167.472 163.099 164.785 164.904 161.828 166.135C158.871 167.366 155.701 168 152.5 168C146.035 168 139.835 165.419 135.264 160.824C130.693 156.229 128.125 149.998 128.125 143.5C128.125 137.002 130.693 130.771 135.264 126.176C139.835 121.581 146.035 119 152.5 119ZM225.625 119C228.826 119 231.996 119.634 234.953 120.865C237.91 122.096 240.597 123.901 242.861 126.176C245.124 128.451 246.92 131.152 248.145 134.124C249.37 137.097 250 140.283 250 143.5C250 146.717 249.37 149.903 248.145 152.876C246.92 155.848 245.124 158.549 242.861 160.824C240.597 163.099 237.91 164.904 234.953 166.135C231.996 167.366 228.826 168 225.625 168C219.16 168 212.96 165.419 208.389 160.824C203.818 156.229 201.25 149.998 201.25 143.5C201.25 137.002 203.818 130.771 208.389 126.176C212.96 121.581 219.16 119 225.625 119Z" fill="url(#paint1_radial_1921_23)"/>
<defs>
<radialGradient id="paint0_radial_1921_23" cx="0" cy="0" r="1" gradientUnits="userSpaceOnUse" gradientTransform="translate(223.455 102.078) rotate(140.244) scale(267.657 279.169)">
<stop stop-color="#3ED1FF"/>
<stop offset="0.675" stop-color="#FF3E83"/>
<stop offset="1" stop-color="#FFA856"/>
</radialGradient>
<radialGradient id="paint1_radial_1921_23" cx="0" cy="0" r="1" gradientUnits="userSpaceOnUse" gradientTransform="translate(197.865 136.992) rotate(167.084) scale(134.972 62.3861)">
<stop stop-color="#3ED1FF"/>
<stop offset="0.675" stop-color="#FF3E83"/>
<stop offset="1" stop-color="#FFA856"/>
</radialGradient>
</defs>
</svg>
