<svg width="40" height="34" viewBox="0 0 40 34" fill="none" xmlns="http://www.w3.org/2000/svg">
<path d="M6.7552 0L7.75569 4.13998C8.03176 5.28197 8.82289 6.17344 9.83636 6.48451L13.5104 7.61189L9.83636 8.73927C8.82289 9.05034 8.03176 9.9418 7.75569 11.0838L6.7552 15.2238L5.7547 11.0838C5.47864 9.9418 4.68751 9.05034 3.67404 8.73927L0 7.61189L3.67404 6.48451C4.68751 6.17344 5.47864 5.28197 5.7547 4.13998L6.7552 0Z" fill="#F4DC00"/>
<path d="M9.25537 23.578L9.9409 26.4111C10.1299 27.1919 10.6709 27.8036 11.3657 28.0165L13.8799 28.789L11.3657 29.5615C10.6727 29.7744 10.1299 30.384 9.9409 31.1669L9.25537 34L8.56985 31.1669C8.38086 30.3861 7.83986 29.7744 7.14507 29.5615L4.63086 28.789L7.14507 28.0165C7.838 27.8036 8.38086 27.194 8.56985 26.4111L9.25537 23.578Z" fill="#F4DC00"/>
<path d="M24.9057 0L27.3754 10.2153C27.7979 11.9648 29.0096 13.3302 30.5622 13.8062L39.6278 16.5892L30.5622 19.3721C29.0096 19.8481 27.7979 21.2135 27.3754 22.963L24.9057 33.1783L22.436 22.963C22.0135 21.2135 20.8018 19.8481 19.2492 19.3721L10.1836 16.5892L19.2492 13.8062C20.8018 13.3302 22.0135 11.9648 22.436 10.2153L24.9057 0Z" fill="#F4DC00"/>
</svg>
