<?xml version="1.0" encoding="UTF-8"?>
<svg id="Camada_2" data-name="Camada 2" xmlns="http://www.w3.org/2000/svg" viewBox="0 0 125 125">
  <defs>
    <style>
      .cls-1 {
        fill: #ff3e83;
      }

      .cls-2 {
        fill: #fff;
        stroke: #ff3e83;
        stroke-miterlimit: 10;
        stroke-width: 5px;
      }

      .cls-3 {
        fill: #3ed1ff;
      }
    </style>
  </defs>
  <g id="Camada_1-2" data-name="Camada 1">
    <g>
      <circle class="cls-2" cx="62.5" cy="62.5" r="60"/>
      <g>
        <path class="cls-1" d="M62.68,95.45c-9.93-.21-18.2-3.58-24.85-10.67-.33-.35-.66-.71-.94-1.09-1.11-1.51-1.06-3.36,.09-4.72,1.23-1.45,3.02-1.85,4.73-.89,5.78,3.27,11.99,5.02,18.62,5.29,8,.33,15.56-1.27,22.57-5.24,2.31-1.31,4.96-.14,5.6,2.36,.35,1.4-.12,2.6-1.03,3.63-5.64,6.36-12.72,10-21.14,11.05-1.3,.16-2.61,.2-3.64,.28Z"/>
        <path class="cls-1" d="M39.61,33.52c2.28-3.57,4.63-4.65,7.5-3.54,2.64,1.02,3.94,3.27,3.5,6.02-.49,3.06-2.68,4.59-6.9,4.75-.07,.66-.12,1.34-.22,2.02-.59,4.13-3.4,7.29-7.46,8.17-1.08,.23-1.36,.73-1.53,1.7-.61,3.66-4.23,6.44-8.65,5.2-2.46-.69-3.99-2.62-4.49-5.19-.52-2.7,.39-4.92,2.53-6.6,.61-.48,.93-.81,.67-1.69-1.2-4.17-.13-7.77,3.24-10.46,3.38-2.69,7.12-2.86,10.93-.82,.27,.14,.54,.28,.86,.44Z"/>
        <path class="cls-1" d="M81.3,40.72c-4.05-.07-6.27-1.51-6.86-4.34-.61-2.91,.53-5.16,3.18-6.3,2.91-1.26,5.11-.29,7.7,3.34,1.19-.46,2.33-1.06,3.54-1.35,7.24-1.75,13.6,4.8,11.63,11.97-.25,.92-.2,1.41,.62,2.06,4.16,3.28,3.27,9.74-1.68,11.66-3.48,1.35-8.16-.62-8.95-5.03-.2-1.11-.58-1.58-1.72-1.83-4.12-.91-7.05-4.49-7.38-8.81-.03-.43-.06-.86-.09-1.36Z"/>
        <path class="cls-1" d="M73.96,69.56c.08,6-5.19,11.22-11.45,11.36-6.19,.13-11.71-5.11-11.78-11.18-.07-6.38,5.23-11.78,11.6-11.81,6.3-.03,11.55,5.22,11.63,11.63Z"/>
        <path class="cls-3" d="M72.95,58.97c-2.07-.13-4.47,.28-4.5-2.54-.04-2.92,2.44-2.49,4.48-2.64,0-.73-.03-1.37,0-2.01,.07-1.52,1.04-2.54,2.41-2.59,1.45-.05,2.51,.94,2.65,2.5,0,.09,0,.17,.01,.26q.08,1.85,2.02,1.92c1.49,.05,2.47,.74,2.7,1.99,.23,1.23-.34,2.2-1.38,2.71-.66,.32-1.52,.32-2.29,.32-.79,0-1.12,.26-1.06,1.06,.04,.48,0,.96-.07,1.44-.2,1.38-1.17,2.24-2.48,2.24-1.24,0-2.32-.95-2.47-2.27-.09-.73-.02-1.48-.02-2.38Z"/>
        <path class="cls-3" d="M54.32,56.33c-.14,.89-.2,1.64-.39,2.35-.68,2.47-2.67,4.03-5.03,4-2.26-.02-4.37-1.62-4.81-4.06-.27-1.53-.19-3.23,.18-4.74,.54-2.19,2.51-3.47,4.68-3.5,2.14-.02,3.94,1.19,4.72,3.29,.33,.89,.46,1.85,.65,2.65Z"/>
      </g>
    </g>
  </g>
</svg>