<?xml version="1.0" encoding="UTF-8"?>
<svg id="Camada_2" data-name="Camada 2" xmlns="http://www.w3.org/2000/svg" viewBox="0 0 125 125">
  <defs>
    <style>
      .cls-1 {
        fill: #fffa40;
      }

      .cls-2 {
        fill: #fff;
        stroke: #ff3e83;
        stroke-miterlimit: 10;
        stroke-width: 5px;
      }

      .cls-3 {
        fill: #3ed1ff;
      }

      .cls-4 {
        fill: #3ebac6;
      }

      .cls-5 {
        fill: #4089ff;
      }
    </style>
  </defs>
  <g id="Camada_1-2" data-name="Camada 1">
    <g>
      <circle class="cls-2" cx="62.5" cy="62.5" r="60"/>
      <g>
        <path class="cls-4" d="M22.51,80.55v2.62c0,1.86,1.51,3.37,3.37,3.37h31.46c-.1,.13-.17,.28-.22,.45-.53,1.95-2.3,6.39-8.11,11.16-.29,.24-.49,.58-.52,.96,0,.03,0,.05,0,.08-.05,.8,.64,1.45,1.43,1.45h28.64s1.37,0,1.18-1.68c-.04-.31-.19-.6-.42-.81-2.98-2.89-5.08-3.72-8.31-11.33-.04-.1-.1-.19-.16-.28h28.28c1.86,0,3.37-1.51,3.37-3.37v-2.62H22.51Z"/>
        <path class="cls-1" d="M55.66,33.01c1.53-1.36-1.16-5.17-1.4-5.92-.18,.75-2.95,4.42-1.38,5.85,.7,.64,2.08,.69,2.78,.07Z"/>
        <path class="cls-1" d="M65.45,30.29c1.53-1.36-1.27-4.98-1.4-5.92-.29,.94-2.95,4.42-1.38,5.85,.7,.64,2.08,.69,2.78,.07Z"/>
        <path class="cls-1" d="M75.79,33.01c1.53-1.36-1.08-4.75-1.4-5.92-.11,1.17-2.95,4.42-1.38,5.85,.7,.64,2.08,.69,2.78,.07Z"/>
        <path class="cls-5" d="M58.64,43.59c5.13,0,5.13,5.13,10.26,5.13s5.13-5.13,10.26-5.13c3.3,0,4.44,2.05,6.2,3.56v-2.43c0-3.05-2.47-5.52-5.52-5.52h-3.48v-5.04h-3.59v5.04h-6.79v-7.56h-3.59v7.56h-6.36v-5.04h-3.59v5.04h-4.12c-3.05,0-5.52,2.47-5.52,5.52v.96c1.46,1.42,2.75,3.04,5.59,3.04,5.13,0,5.13-5.13,10.26-5.13Z"/>
        <path class="cls-3" d="M85.36,48.88c-1.74-1.51-2.98-3.6-6.2-3.6-5.13,0-5.13,5.13-10.26,5.13s-5.13-5.13-10.26-5.13-5.13,5.13-10.26,5.13c-2.9,0-4.14-1.59-5.59-3v12.47h42.57v-11Z"/>
        <path class="cls-5" d="M47.27,65.99c5.13,0,5.13,5.13,10.26,5.13s5.13-5.13,10.26-5.13c.05,0,.09,0,.14,0h0c5.13-.17,5.21,5.13,10.34,5.13s5.13-5.13,10.26-5.13c3.25,0,4.44,2.06,6.18,3.56v-3.07c0-3.05-2.47-5.52-5.52-5.52H38.96c-3.05,0-5.52,2.47-5.52,5.52v3.46c.91,.69,2.01,1.18,3.58,1.18,5.13,0,5.13-5.13,10.26-5.13Z"/>
        <path class="cls-3" d="M94.71,71.24c-1.74-1.51-2.93-3.56-6.17-3.56-5.13,0-5.13,5.13-10.26,5.13-.05,0-.09,0-.14,0h0c-5.13,.17-5.21-5.13-10.34-5.13s-5.13,5.13-10.26,5.13-5.13-5.13-10.26-5.13-5.13,5.13-10.26,5.13c-1.59,0-2.69-.48-3.59-1.15v7.8h61.28v-8.22Z"/>
      </g>
    </g>
  </g>
</svg>