<?xml version="1.0" encoding="UTF-8"?>
<svg id="Camada_2" data-name="Camada 2" xmlns="http://www.w3.org/2000/svg" viewBox="0 0 125 125">
  <defs>
    <style>
      .cls-1 {
        fill: #ff3e83;
      }

      .cls-2 {
        fill: #f3d2ff;
      }

      .cls-3 {
        fill: #fff;
        stroke: #ff3e83;
        stroke-miterlimit: 10;
        stroke-width: 5px;
      }

      .cls-4 {
        fill: #bd65da;
      }
    </style>
  </defs>
  <g id="Camada_1-2" data-name="Camada 1">
    <g>
      <circle class="cls-3" cx="62.5" cy="62.5" r="60"/>
      <g>
        <path class="cls-4" d="M26.49,74.85c0-6.9,0-13.45,0-20,0-2.69-.09-5.39,.06-8.08,.04-.77,.59-1.84,1.23-2.21,11.02-6.44,22.09-12.8,33.19-19.11,.6-.34,1.74-.34,2.35,0,11.23,6.37,22.41,12.8,33.58,19.27,.59,.34,1.25,1.2,1.26,1.82,.08,9.39,.06,18.77,.06,28.52-.87-.47-1.51-.81-2.14-1.17-10.59-6.08-21.2-12.14-31.75-18.3-1.54-.9-2.66-1.01-4.28-.06-10.29,6.05-20.66,11.96-31.01,17.92-.71,.41-1.43,.8-2.54,1.4Zm44.4-37.02c0,4.49,.06,8.5-.03,12.5-.03,1.29,.43,1.97,1.52,2.58,4.64,2.59,9.22,5.27,13.83,7.9,.48,.28,1.01,.49,1.72,.83,0-3.09-.29-5.89,.07-8.6,.56-4.15-.96-6.51-4.77-8.23-4.17-1.89-8.01-4.49-12.34-6.97Z"/>
        <path class="cls-2" d="M62.34,54.87s-.68-.27-2.3,.68c-10.29,6.05-20.66,11.96-31.01,17.92-.71,.41-1.43,.8-2.54,1.4,0-6.9,0-13.45,0-20,0-2.69-.09-5.39,.06-8.08,.04-.77,.59-1.84,1.23-2.21,11.02-6.44,22.09-12.8,33.19-19.11,.6-.34,1.53-.24,1.53-.24"/>
        <path class="cls-1" d="M98.57,78.69c-.84,.55-1.38,.93-1.95,1.27-10.78,6.44-21.56,12.86-32.32,19.32-1.05,.63-1.81,.76-2.96,.09-11.11-6.55-22.27-13.02-33.41-19.51-2.02-1.18-2.02-1.52,0-2.69,10.94-6.3,21.87-12.61,32.83-18.85,.64-.36,1.78-.52,2.36-.19,11.46,6.5,22.87,13.08,34.28,19.65,.28,.16,.52,.41,1.14,.92Z"/>
      </g>
    </g>
  </g>
</svg>