<?xml version="1.0" encoding="UTF-8"?>
<svg id="Camada_2" data-name="Camada 2" xmlns="http://www.w3.org/2000/svg" viewBox="0 0 125 125">
  <defs>
    <style>
      .cls-1 {
        fill: #33d5ef;
      }

      .cls-2 {
        fill: #fff;
        stroke: #ff3e83;
        stroke-miterlimit: 10;
        stroke-width: 5px;
      }

      .cls-3 {
        fill: #3ed1ff;
      }
    </style>
  </defs>
  <g id="Camada_1-2" data-name="Camada 1">
    <g>
      <circle class="cls-2" cx="62.5" cy="62.5" r="60"/>
      <g>
        <path class="cls-3" d="M93.28,44.18h-4.17c.07-.3,.11-.61,.11-.94h0c0-2.28-1.87-4.15-4.15-4.15s-4.15,1.87-4.15,4.15h0c0,.32,.04,.63,.11,.94h-2.4c.12-.4,.18-.82,.18-1.25v-.98c0-2.45-2.01-4.46-4.46-4.46h-23.71c-2.45,0-4.46,2.01-4.46,4.46v.98c0,.43,.07,.85,.18,1.25h-14.65c-1.77,0-3.21,1.44-3.21,3.21v36.91c0,1.77,1.44,3.21,3.21,3.21h61.55c1.77,0,3.21-1.44,3.21-3.21V47.39c0-1.77-1.44-3.21-3.21-3.21Zm-57.28,12.03c-2.22,0-4.01-1.8-4.01-4.01s1.8-4.01,4.01-4.01,4.01,1.8,4.01,4.01-1.8,4.01-4.01,4.01Zm5.62,4.55c-1.33,0-2.41-1.08-2.41-2.41s1.08-2.41,2.41-2.41,2.41,1.08,2.41,2.41-1.08,2.41-2.41,2.41Zm21.49,22.33c-9.53,0-17.25-7.72-17.25-17.25s7.72-17.25,17.25-17.25,17.25,7.72,17.25,17.25-7.72,17.25-17.25,17.25Z"/>
        <path class="cls-1" d="M63.1,52.2c-7.61,0-13.77,6.17-13.77,13.77s6.17,13.77,13.77,13.77,13.77-6.17,13.77-13.77-6.17-13.77-13.77-13.77Zm.66,6.69c-4.37,0-7.3,3.12-7.3,7.76h-3.21c0-6.46,4.32-10.96,10.51-10.96v3.21Z"/>
      </g>
    </g>
  </g>
</svg>