<svg width="94" height="94" viewBox="0 0 94 94" fill="none" xmlns="http://www.w3.org/2000/svg">
<path d="M24.597 86.1666C27.8379 86.1666 30.9461 84.8791 33.2378 82.5874C35.5295 80.2957 36.817 77.1875 36.817 73.9466C36.817 70.7056 35.5295 67.5974 33.2378 65.3057C30.9461 63.014 27.8379 61.7266 24.597 61.7266C21.356 61.7266 18.2478 63.014 15.9561 65.3057C13.6644 67.5974 12.377 70.7056 12.377 73.9466C12.377 77.1875 13.6644 80.2957 15.9561 82.5874C18.2478 84.8791 21.356 86.1666 24.597 86.1666Z" stroke="black" stroke-width="1.5" stroke-linecap="round" stroke-linejoin="round"/>
<path d="M81.6231 65.7997V18.0164C81.6231 7.83303 75.2389 6.42303 68.7764 8.18553L44.3364 14.8439C39.8714 16.058 36.8164 19.583 36.8164 24.6747V73.9072" stroke="black" stroke-width="1.5" stroke-linecap="round" stroke-linejoin="round"/>
<path d="M36.8164 37.2864L81.6231 25.0664M69.4031 78.0197C72.644 78.0197 75.7522 76.7323 78.0439 74.4406C80.3356 72.1489 81.6231 69.0407 81.6231 65.7997C81.6231 62.5588 80.3356 59.4506 78.0439 57.1589C75.7522 54.8672 72.644 53.5797 69.4031 53.5797C66.1621 53.5797 63.0539 54.8672 60.7622 57.1589C58.4705 59.4506 57.1831 62.5588 57.1831 65.7997C57.1831 69.0407 58.4705 72.1489 60.7622 74.4406C63.0539 76.7323 66.1621 78.0197 69.4031 78.0197Z" stroke="black" stroke-width="1.5" stroke-linecap="round" stroke-linejoin="round"/>
</svg>
