<svg width="843" height="895" viewBox="0 0 843 895" fill="none" xmlns="http://www.w3.org/2000/svg">
<path d="M232.632 652.172L194.368 842.838L48.3783 714.368L232.632 652.172Z" fill="#FF527B"/>
<path d="M516.28 639.395L449.895 792.517L350.48 658.465L516.28 639.395Z" fill="#9391C9"/>
<path d="M651.721 550.881L805.573 644.569L647.51 730.965L651.721 550.881Z" fill="#59BDEF"/>
<g clip-path="url(#clip0_1051_3)">
<path d="M529.825 135.253H526.696V49.5832C526.696 36.4329 521.468 23.8212 512.164 14.5226C502.859 5.22395 490.239 1.65931e-05 477.081 1.57901e-10H295.461C288.945 -1.64318e-05 282.493 1.28247 276.474 3.77424C270.454 6.26601 264.984 9.91827 260.377 14.5225C255.77 19.1267 252.115 24.5927 249.622 30.6084C247.129 36.6241 245.845 43.0717 245.845 49.583V519.572C245.845 526.084 247.129 532.531 249.622 538.547C252.115 544.563 255.77 550.029 260.377 554.633C264.984 559.237 270.454 562.889 276.474 565.381C282.493 567.873 288.945 569.155 295.46 569.155H477.08C490.239 569.155 502.859 563.932 512.164 554.633C521.468 545.334 526.696 532.723 526.696 519.572V196.234H529.825L529.825 135.253Z" fill="#3F3D56"/>
<path d="M479.082 12.8999H455.375C456.465 15.5711 456.881 18.4692 456.587 21.339C456.292 24.2088 455.296 26.9621 453.686 29.3565C452.076 31.7509 449.901 33.7128 447.353 35.0694C444.806 36.426 441.963 37.1357 439.077 37.1359H335.029C332.142 37.1357 329.3 36.426 326.752 35.0694C324.205 33.7128 322.03 31.7509 320.42 29.3565C318.81 26.9622 317.813 24.2088 317.519 21.339C317.224 18.4692 317.64 15.5711 318.731 12.8999H296.588C286.761 12.8999 277.337 16.8011 270.388 23.7452C263.439 30.6893 259.536 40.1075 259.536 49.928V519.228C259.536 524.09 260.494 528.905 262.356 533.398C264.218 537.89 266.947 541.972 270.388 545.41C273.829 548.849 277.913 551.576 282.409 553.437C286.904 555.298 291.722 556.256 296.588 556.256H479.082C483.948 556.256 488.766 555.298 493.262 553.437C497.757 551.576 501.842 548.849 505.282 545.41C508.723 541.972 511.452 537.89 513.314 533.398C515.176 528.905 516.135 524.09 516.135 519.228V49.928C516.135 45.0654 515.176 40.2504 513.314 35.7579C511.452 31.2655 508.723 27.1835 505.282 23.7451C501.842 20.3068 497.757 17.5793 493.262 15.7185C488.766 13.8577 483.948 12.8999 479.082 12.8999Z" fill="white"/>
<path d="M387.519 100.295H281.402V281.462H387.519V100.295Z" fill="#E6E6E6"/>
<path d="M493.949 295.653H405.751V500.758H493.949V295.653Z" fill="#E6E6E6"/>
<path d="M494.268 100.295H405.837V150.163H494.268V100.295Z" fill="#E6E6E6"/>
<path d="M494.268 164.051H405.837V217.706H494.268V164.051Z" fill="#F50057"/>
<path d="M494.268 231.594H405.837V281.462H494.268V231.594Z" fill="#E6E6E6"/>
<path d="M387.651 295.653H281.533V374.604H387.651V295.653Z" fill="#E6E6E6"/>
<path d="M387.651 389.909H281.533V500.924H387.651V389.909Z" fill="#E6E6E6"/>
<path d="M628.69 225.213C628.69 242.453 612.739 239.846 593.061 239.846C573.384 239.846 557.432 242.453 557.432 225.213C557.432 207.973 565.224 177.413 593.061 177.413C621.857 177.413 628.69 207.973 628.69 225.213Z" fill="#2F2E41"/>
<path d="M492.526 193.861C491.891 195.146 491.545 196.556 491.513 197.989C491.481 199.423 491.764 200.846 492.342 202.159C492.92 203.471 493.779 204.641 494.859 205.586C495.938 206.531 497.212 207.228 498.59 207.628L500.385 242.441L514.984 231.703L511.041 200.29C511.559 197.932 511.194 195.466 510.015 193.359C508.835 191.251 506.923 189.65 504.641 188.857C502.359 188.065 499.865 188.136 497.633 189.059C495.4 189.981 493.583 191.689 492.526 193.861Z" fill="#FFB8B8"/>
<path d="M652.567 390.604C653.359 389.408 653.879 388.053 654.091 386.635C654.302 385.217 654.2 383.769 653.791 382.394C653.382 381.02 652.677 379.751 651.725 378.679C650.772 377.606 649.596 376.755 648.279 376.186L650.867 341.422L635.036 350.245L635.005 381.905C634.195 384.179 634.248 386.672 635.153 388.91C636.059 391.149 637.755 392.977 639.92 394.049C642.084 395.122 644.567 395.363 646.898 394.728C649.229 394.093 651.246 392.626 652.567 390.604Z" fill="#FFB8B8"/>
<path d="M579.66 557.946H591.627L597.32 511.817L579.658 511.817L579.66 557.946Z" fill="#FFB8B8"/>
<path d="M576.607 554.042L600.175 554.041H600.176C602.148 554.041 604.102 554.429 605.924 555.183C607.746 555.938 609.402 557.043 610.796 558.437C612.191 559.831 613.297 561.485 614.052 563.306C614.807 565.128 615.195 567.079 615.195 569.05V569.538L576.608 569.54L576.607 554.042Z" fill="#2F2E41"/>
<path d="M655.798 557.946H667.766L673.459 511.817L655.797 511.817L655.798 557.946Z" fill="#FFB8B8"/>
<path d="M652.746 554.042L676.314 554.041H676.315C678.287 554.041 680.24 554.429 682.062 555.183C683.885 555.938 685.54 557.043 686.935 558.437C688.33 559.831 689.436 561.485 690.191 563.306C690.946 565.128 691.334 567.079 691.334 569.05V569.538L652.747 569.54L652.746 554.042Z" fill="#2F2E41"/>
<path d="M648.968 371.45L648.448 371.356C644.089 370.567 639.677 369.77 635.798 368.936L635.414 368.854L635.413 368.461C635.346 350.779 635.28 333.1 635.182 315.261C625.917 296.598 622.022 275.731 623.931 254.985L623.953 254.766L624.133 254.637C625.821 253.466 627.792 252.764 629.841 252.606C631.891 252.448 633.945 252.838 635.794 253.736C637.603 254.724 639.148 256.13 640.303 257.836C641.457 259.542 642.187 261.499 642.431 263.545C645.958 282.757 649.61 302.653 653.683 322.259L653.698 322.33L653.692 322.404C652.183 338.393 650.622 354.927 649.021 370.925L648.968 371.45Z" fill="#F50057"/>
<path d="M641.167 541.506L641.071 541.056C635.473 514.592 630.069 493.041 624.842 472.2C618.579 447.224 612.644 423.556 606.652 392.929C607.475 431.552 609.386 459.3 611.583 491.196C612.575 505.598 613.601 520.49 614.642 537.876L614.674 538.407L614.142 538.393C595.412 537.914 576.223 536.758 557.665 535.64L557.174 535.611L557.208 535.12C560.721 483.366 561.822 449.736 562.626 425.179C564.322 373.372 564.583 365.409 583.893 321.563C584.625 319.9 588.992 314.985 593.794 315.734L631.787 321.643L631.854 321.978C632.926 327.374 638.246 343.75 645.61 366.416C661.351 414.868 685.139 488.09 692.57 531.736L692.655 532.231L692.158 532.301C681.364 533.834 673.596 535.431 666.083 536.974C658.975 538.435 651.625 539.945 641.621 541.437L641.167 541.506Z" fill="#2F2E41"/>
<path d="M608.146 335.34C598.005 335.341 587.982 331.824 580.797 324.978C579.674 324.325 578.724 323.412 578.028 322.316C577.332 321.219 576.909 319.972 576.796 318.679C576.612 317.494 576.689 316.283 577.023 315.131C577.356 313.979 577.938 312.914 578.728 312.011C571.683 303.49 564.41 294.683 557.447 285.714L557.255 285.467L557.478 285.042C562.033 276.344 566.743 267.351 571.267 258.465C571.581 257.691 572.1 257.015 572.767 256.511C573.434 256.006 574.224 255.69 575.056 255.598C575.778 255.461 576.52 255.473 577.238 255.634C577.955 255.794 578.632 256.099 579.228 256.529L579.237 256.313C579.426 251.815 579.615 247.316 579.809 243.052L579.83 242.597L580.286 242.586C588.983 242.395 597.977 242.196 606.811 241.673L607.147 241.653L611.529 251.42C618.645 250.73 625.806 252.182 632.09 255.591L632.379 255.745L632.345 256.071C630.583 272.858 630.966 289.8 633.486 306.49C633.349 314.11 633.202 321.899 631.655 328.107L631.61 328.288L631.455 328.393C624.549 332.973 616.434 335.391 608.146 335.34Z" fill="#F50057"/>
<path d="M570.82 292.964L570.236 292.696C563.422 289.28 556.587 285.491 549.977 281.826L549.064 281.648C531.66 278.156 522.073 276.234 506.372 267.032L506.251 266.961L506.186 266.837C498.324 251.828 496.131 238.708 498.095 218.43L498.134 218.023L498.541 217.991C500.243 217.853 503.018 217.761 505.7 217.671C508.31 217.584 511.009 217.494 512.664 217.364L513.048 217.334L513.166 217.7C515.224 224.049 516.972 229.972 518.822 236.244C520.724 242.69 522.69 249.353 525.085 256.756C533.852 259.274 557.355 258.521 564.663 257.527C568.88 257.094 573.141 259.042 576.081 262.715L576.216 262.884L576.181 263.099C574.573 272.911 572.725 282.781 570.939 292.327L570.82 292.964Z" fill="#F50057"/>
<path d="M613.66 226.428C620.011 214.817 615.741 200.259 604.123 193.912C592.505 187.565 577.937 191.832 571.586 203.443C565.235 215.054 569.505 229.612 581.123 235.959C592.742 242.306 607.309 238.039 613.66 226.428Z" fill="#FFB8B8"/>
<path d="M565.241 213.507H574.724L578.907 201.801L579.744 213.507H584.276L586.716 206.678L587.204 213.507H620.881C620.881 206.78 618.207 200.329 613.448 195.572C608.688 190.816 602.233 188.144 595.502 188.144H590.621C583.89 188.144 577.434 190.816 572.675 195.572C567.915 200.329 565.241 206.78 565.241 213.507Z" fill="#2F2E41"/>
<path d="M764.681 570H165.246C165.039 570 164.84 569.918 164.693 569.771C164.546 569.624 164.464 569.425 164.464 569.218C164.464 569.011 164.546 568.812 164.693 568.665C164.84 568.518 165.039 568.436 165.246 568.436H764.681C764.889 568.436 765.088 568.518 765.235 568.665C765.381 568.812 765.464 569.011 765.464 569.218C765.464 569.425 765.381 569.624 765.235 569.771C765.088 569.918 764.889 570 764.681 570Z" fill="#3F3D56"/>
</g>
<defs>
<clipPath id="clip0_1051_3">
<rect width="601" height="570" fill="white" transform="translate(164.464)"/>
</clipPath>
</defs>
</svg>
