<svg width="664" height="862" viewBox="0 0 664 862" fill="none" xmlns="http://www.w3.org/2000/svg">
<path d="M116.419 644.439L82.1381 815.26L-48.657 700.161L116.419 644.439Z" fill="#FF527B"/>
<path d="M370.545 632.991L311.069 770.176L222.001 650.076L370.545 632.991Z" fill="#9391C9"/>
<path d="M491.888 553.689L629.727 637.626L488.116 715.03L491.888 553.689Z" fill="#59BDEF"/>
<g clip-path="url(#clip0_914_2)">
<path d="M428.361 135.253H425.231V49.5832C425.231 36.4329 420.004 23.8212 410.699 14.5226C401.395 5.22395 388.775 1.65931e-05 375.616 1.57901e-10H193.996C187.481 -1.64318e-05 181.029 1.28247 175.009 3.77424C168.99 6.26601 163.52 9.91827 158.913 14.5225C154.306 19.1267 150.651 24.5927 148.158 30.6084C145.664 36.6241 144.381 43.0717 144.381 49.583V519.572C144.381 526.084 145.664 532.531 148.158 538.547C150.651 544.563 154.306 550.029 158.913 554.633C163.52 559.237 168.99 562.889 175.009 565.381C181.029 567.873 187.481 569.155 193.996 569.155H375.616C388.775 569.155 401.395 563.932 410.699 554.633C420.004 545.334 425.231 532.723 425.231 519.572V196.234H428.361L428.361 135.253Z" fill="#3F3D56"/>
<path d="M377.618 12.8999H353.911C355.001 15.5711 355.417 18.4692 355.122 21.339C354.828 24.2088 353.832 26.9621 352.221 29.3565C350.611 31.7509 348.437 33.7128 345.889 35.0694C343.341 36.426 340.499 37.1357 337.612 37.1359H233.565C230.678 37.1357 227.836 36.426 225.288 35.0694C222.74 33.7128 220.566 31.7509 218.955 29.3565C217.345 26.9622 216.349 24.2088 216.054 21.339C215.76 18.4692 216.176 15.5711 217.266 12.8999H195.123C185.297 12.8999 175.872 16.8011 168.924 23.7452C161.975 30.6893 158.071 40.1075 158.071 49.928V519.228C158.071 524.09 159.03 528.905 160.892 533.398C162.754 537.89 165.483 541.972 168.924 545.41C172.364 548.849 176.449 551.576 180.944 553.437C185.44 555.298 190.258 556.256 195.123 556.256H377.618C382.484 556.256 387.302 555.298 391.797 553.437C396.293 551.576 400.377 548.849 403.818 545.41C407.258 541.972 409.988 537.89 411.85 533.398C413.712 528.905 414.67 524.09 414.67 519.228V49.928C414.67 45.0654 413.712 40.2504 411.85 35.7579C409.988 31.2655 407.258 27.1835 403.818 23.7451C400.377 20.3068 396.293 17.5793 391.797 15.7185C387.302 13.8577 382.484 12.8999 377.618 12.8999Z" fill="white"/>
<path d="M286.055 100.295H179.938V281.462H286.055V100.295Z" fill="#E6E6E6"/>
<path d="M392.486 295.653H304.287V500.758H392.486V295.653Z" fill="#E6E6E6"/>
<path d="M392.804 100.295H304.373V150.164H392.804V100.295Z" fill="#E6E6E6"/>
<path d="M392.804 164.051H304.373V217.706H392.804V164.051Z" fill="#F50057"/>
<path d="M392.804 231.594H304.373V281.462H392.804V231.594Z" fill="#E6E6E6"/>
<path d="M286.187 295.653H180.069V374.604H286.187V295.653Z" fill="#E6E6E6"/>
<path d="M286.187 389.909H180.069V500.924H286.187V389.909Z" fill="#E6E6E6"/>
<path d="M527.227 225.213C527.227 242.453 511.275 239.846 491.598 239.846C471.92 239.846 455.969 242.453 455.969 225.213C455.969 207.973 463.761 177.413 491.598 177.413C520.394 177.413 527.227 207.973 527.227 225.213Z" fill="#2F2E41"/>
<path d="M391.062 193.861C390.426 195.147 390.08 196.556 390.048 197.99C390.016 199.423 390.3 200.847 390.878 202.159C391.456 203.472 392.315 204.642 393.394 205.587C394.474 206.531 395.747 207.228 397.126 207.628L398.921 242.441L413.52 231.704L409.577 200.29C410.095 197.932 409.73 195.466 408.551 193.359C407.371 191.252 405.459 189.65 403.177 188.857C400.895 188.065 398.401 188.137 396.168 189.059C393.935 189.981 392.119 191.69 391.062 193.861Z" fill="#FFB8B8"/>
<path d="M551.103 390.604C551.895 389.408 552.415 388.054 552.627 386.635C552.838 385.217 552.736 383.769 552.327 382.395C551.919 381.02 551.213 379.752 550.261 378.679C549.308 377.606 548.132 376.755 546.815 376.186L549.403 341.422L533.572 350.245L533.542 381.905C532.731 384.179 532.784 386.672 533.689 388.91C534.595 391.149 536.291 392.977 538.456 394.05C540.62 395.122 543.103 395.364 545.434 394.729C547.765 394.094 549.782 392.626 551.103 390.604Z" fill="#FFB8B8"/>
<path d="M478.197 557.946H490.163L495.856 511.816L478.194 511.817L478.197 557.946Z" fill="#FFB8B8"/>
<path d="M475.144 554.042L498.711 554.041H498.712C500.685 554.041 502.638 554.429 504.46 555.183C506.282 555.938 507.938 557.043 509.332 558.437C510.727 559.831 511.834 561.485 512.588 563.306C513.343 565.128 513.732 567.079 513.732 569.05V569.538L475.144 569.54L475.144 554.042Z" fill="#2F2E41"/>
<path d="M554.335 557.946H566.302L571.995 511.816L554.333 511.817L554.335 557.946Z" fill="#FFB8B8"/>
<path d="M551.282 554.042L574.85 554.041H574.851C576.823 554.041 578.776 554.429 580.599 555.183C582.421 555.938 584.076 557.043 585.471 558.437C586.866 559.831 587.972 561.485 588.727 563.306C589.482 565.128 589.87 567.079 589.87 569.05V569.538L551.283 569.54L551.282 554.042Z" fill="#2F2E41"/>
<path d="M547.504 371.45L546.984 371.356C542.625 370.567 538.213 369.77 534.334 368.936L533.95 368.853L533.949 368.461C533.882 350.779 533.816 333.1 533.718 315.26C524.453 296.598 520.558 275.73 522.467 254.985L522.489 254.766L522.669 254.637C524.357 253.465 526.328 252.764 528.377 252.606C530.427 252.447 532.482 252.837 534.33 253.736C536.139 254.724 537.685 256.129 538.839 257.836C539.994 259.542 540.723 261.499 540.967 263.544C544.495 282.757 548.146 302.653 552.22 322.259L552.235 322.33L552.228 322.403C550.719 338.393 549.158 354.927 547.557 370.924L547.504 371.45Z" fill="#F50057"/>
<path d="M539.703 541.506L539.608 541.056C534.01 514.592 528.605 493.041 523.379 472.2C517.116 447.224 511.18 423.556 505.188 392.929C506.011 431.552 507.923 459.3 510.12 491.196C511.112 505.598 512.138 520.491 513.178 537.876L513.21 538.407L512.679 538.394C493.949 537.914 474.76 536.758 456.202 535.64L455.711 535.611L455.744 535.12C459.258 483.366 460.359 449.736 461.163 425.18C462.859 373.372 463.119 365.409 482.43 321.564C483.162 319.9 487.529 314.985 492.33 315.734L530.324 321.644L530.39 321.978C531.463 327.375 536.783 343.751 544.146 366.416C559.888 414.868 583.676 488.09 591.107 531.737L591.191 532.231L590.694 532.301C579.901 533.834 572.132 535.431 564.62 536.974C557.512 538.436 550.162 539.945 540.158 541.437L539.703 541.506Z" fill="#2F2E41"/>
<path d="M506.682 335.34C496.541 335.341 486.518 331.824 479.333 324.978C478.21 324.325 477.26 323.412 476.564 322.316C475.868 321.219 475.445 319.972 475.332 318.679C475.148 317.494 475.225 316.283 475.559 315.131C475.893 313.979 476.474 312.914 477.264 312.011C470.219 303.49 462.946 294.683 455.983 285.714L455.791 285.467L456.014 285.042C460.569 276.344 465.279 267.351 469.803 258.465C470.118 257.691 470.636 257.015 471.303 256.511C471.97 256.006 472.761 255.69 473.592 255.598C474.314 255.461 475.057 255.473 475.774 255.634C476.491 255.794 477.168 256.099 477.764 256.529L477.773 256.313C477.962 251.815 478.151 247.316 478.345 243.052L478.366 242.597L478.822 242.586C487.52 242.395 496.513 242.196 505.347 241.673L505.683 241.653L510.065 251.42C517.181 250.73 524.342 252.182 530.626 255.591L530.915 255.745L530.881 256.071C529.119 272.858 529.502 289.8 532.022 306.49C531.885 314.11 531.738 321.899 530.191 328.107L530.146 328.288L529.991 328.393C523.085 332.973 514.97 335.391 506.682 335.34Z" fill="#F50057"/>
<path d="M469.356 292.964L468.772 292.696C461.958 289.28 455.123 285.49 448.513 281.826L447.6 281.647C430.196 278.156 420.609 276.234 404.908 267.032L404.787 266.96L404.723 266.837C396.861 251.828 394.668 238.708 396.631 218.43L396.67 218.023L397.077 217.991C398.779 217.853 401.554 217.76 404.236 217.671C406.846 217.584 409.545 217.494 411.2 217.364L411.584 217.333L411.703 217.699C413.76 224.049 415.508 229.972 417.358 236.243C419.26 242.69 421.226 249.353 423.621 256.756C432.388 259.274 455.891 258.521 463.199 257.526C467.417 257.094 471.677 259.042 474.617 262.715L474.753 262.884L474.718 263.098C473.109 272.911 471.261 282.781 469.475 292.326L469.356 292.964Z" fill="#F50057"/>
<path d="M512.197 226.428C518.548 214.817 514.278 200.26 502.66 193.913C491.041 187.566 476.474 191.833 470.123 203.444C463.772 215.054 468.042 229.612 479.66 235.959C491.278 242.306 505.846 238.039 512.197 226.428Z" fill="#FFB8B8"/>
<path d="M463.777 213.507H473.26L477.443 201.801L478.28 213.507H482.812L485.252 206.679L485.74 213.507H519.417C519.417 206.78 516.743 200.329 511.984 195.573C507.224 190.816 500.769 188.144 494.038 188.144H489.157C482.426 188.144 475.97 190.816 471.211 195.573C466.451 200.329 463.777 206.78 463.777 213.507Z" fill="#2F2E41"/>
<path d="M663.217 570H63.7826C63.575 570 63.376 569.917 63.2292 569.771C63.0824 569.624 63 569.425 63 569.218C63 569.01 63.0824 568.811 63.2292 568.665C63.376 568.518 63.575 568.436 63.7826 568.436H663.217C663.425 568.436 663.624 568.518 663.771 568.665C663.918 568.811 664 569.01 664 569.218C664 569.425 663.918 569.624 663.771 569.771C663.624 569.917 663.425 570 663.217 570Z" fill="#3F3D56"/>
</g>
<defs>
<clipPath id="clip0_914_2">
<rect width="601" height="570" fill="white" transform="translate(63)"/>
</clipPath>
</defs>
</svg>
